<svg width="200" height="26" viewBox="0 0 200 26" fill="none" xmlns="http://www.w3.org/2000/svg">
<g filter="url(#filter0_d_2999_705)">
<path d="M185.292 23.1555C186.792 23.6793 188.419 23.9412 190.173 23.9412C191.779 23.9412 193.417 23.7095 195.086 23.2461C196.755 22.7827 198.224 22.1179 199.491 21.2516V12.4879H193.945V18.2985C193.722 18.3989 193.5 18.4867 193.279 18.562C192.392 18.8441 191.483 18.9851 190.554 18.9851C189.624 18.9851 188.768 18.8441 187.986 18.562C187.226 18.2598 186.571 17.8468 186.021 17.323C185.472 16.7791 185.039 16.1344 184.722 15.389C184.426 14.6435 184.278 13.8276 184.278 12.9412C184.278 12.0144 184.426 11.1884 184.722 10.4631C185.039 9.71772 185.472 9.08311 186.021 8.5593C186.571 8.01534 187.236 7.60234 188.018 7.32028C188.8 7.03823 189.666 6.89721 190.617 6.89721C191.695 6.89721 192.666 7.09867 193.533 7.5016C194.42 7.88439 195.244 8.46864 196.005 9.25435L199.998 5.80929C198.921 4.56021 197.558 3.60325 195.91 2.93841C194.262 2.27358 192.392 1.94116 190.3 1.94116C188.504 1.94116 186.845 2.21314 185.324 2.7571C183.824 3.28091 182.524 4.0364 181.426 5.02358C180.327 6.01076 179.471 7.17926 178.858 8.52908C178.245 9.85875 177.939 11.3294 177.939 12.9412C177.939 14.5529 178.245 16.0337 178.858 17.3835C179.471 18.7131 180.316 19.8716 181.394 20.8587C182.493 21.8459 183.792 22.6115 185.292 23.1555Z" fill="url(#paint0_linear_2999_705)"/>
<path d="M176.091 2.36245H169.181L160.592 11.1506V2.36245H154.38V23.5163H160.592V18.2182L162.925 15.8398L169.277 23.5163H176.566L167.05 11.7405L176.091 2.36245Z" fill="url(#paint1_linear_2999_705)"/>
<path d="M147.368 23.7909C146.354 23.7909 145.498 23.4686 144.801 22.8239C144.104 22.1792 143.755 21.3633 143.755 20.3761C143.755 19.3486 144.104 18.5327 144.801 17.9283C145.498 17.3038 146.354 16.9915 147.368 16.9915C148.382 16.9915 149.238 17.3038 149.936 17.9283C150.633 18.5327 150.981 19.3486 150.981 20.3761C150.981 21.3633 150.633 22.1792 149.936 22.8239C149.238 23.4686 148.382 23.7909 147.368 23.7909Z" fill="url(#paint2_linear_2999_705)"/>
<path d="M127.242 23.5174L117.766 2.36356H124.548L130.562 16.1523L136.719 2.36356H142.931L133.423 23.5174H127.242Z" fill="url(#paint3_linear_2999_705)"/>
<path d="M74.1045 23.5172V2.36338H80.38V23.5172H74.1045Z" fill="url(#paint4_linear_2999_705)"/>
<path d="M91.1836 23.5174V7.10806H84.3692V2.36356H104.242V7.10806H97.4591V23.5174H91.1836Z" fill="url(#paint5_linear_2999_705)"/>
<path d="M108.078 23.5174V2.36356H114.354V23.5174H108.078Z" fill="url(#paint6_linear_2999_705)"/>
<path d="M51.3766 23.5174V19.7701L62.5655 7.10806H51.6619V2.36356H70.7737V6.11081L59.5848 18.7729H71.2491V23.5174H51.3766Z" fill="url(#paint7_linear_2999_705)"/>
<path d="M35.6574 23.7811C33.9284 23.7811 32.3331 23.5162 30.8716 22.9863C29.4101 22.4564 28.1339 21.7106 27.043 20.7489C25.9726 19.7676 25.1389 18.6292 24.542 17.3339C23.9451 16.0386 23.6466 14.6156 23.6466 13.0652C23.6466 11.5147 23.9451 10.0918 24.542 8.79643C25.1389 7.5011 25.9726 6.37258 27.043 5.41089C28.1339 4.42958 29.4101 3.67396 30.8716 3.14405C32.3331 2.61414 33.9284 2.34918 35.6574 2.34918C37.4071 2.34918 39.0023 2.61414 40.4432 3.14405C41.9047 3.67396 43.1706 4.42958 44.241 5.41089C45.3114 6.37258 46.145 7.5011 46.742 8.79643C47.3595 10.0918 47.6682 11.5147 47.6682 13.0652C47.6682 14.6156 47.3595 16.0484 46.742 17.3633C46.145 18.6587 45.3114 19.7872 44.241 20.7489C43.1706 21.7106 41.9047 22.4564 40.4432 22.9863C39.0023 23.5162 37.4071 23.7811 35.6574 23.7811ZM35.6574 18.9531C36.4808 18.9531 37.2424 18.8157 37.9422 18.5409C38.6627 18.2661 39.2802 17.8736 39.7948 17.3633C40.33 16.8334 40.7417 16.2054 41.0299 15.4792C41.3386 14.753 41.493 13.9483 41.493 13.0652C41.493 12.1624 41.3386 11.3577 41.0299 10.6511C40.7417 9.92495 40.33 9.30672 39.7948 8.79643C39.2802 8.26652 38.6627 7.86418 37.9422 7.58942C37.2424 7.31465 36.4808 7.17726 35.6574 7.17726C34.8341 7.17726 34.0621 7.31465 33.3417 7.58942C32.6418 7.86418 32.0243 8.26652 31.4891 8.79643C30.9745 9.30672 30.5629 9.92495 30.2541 10.6511C29.9659 11.3577 29.8218 12.1624 29.8218 13.0652C29.8218 13.9483 29.9659 14.753 30.2541 15.4792C30.5629 16.2054 30.9745 16.8334 31.4891 17.3633C32.0243 17.8736 32.6418 18.2661 33.3417 18.5409C34.0621 18.8157 34.8341 18.9531 35.6574 18.9531Z" fill="url(#paint8_linear_2999_705)"/>
<path fill-rule="evenodd" clip-rule="evenodd" d="M0.00293732 23.5172V2.36338H10.1452C12.1736 2.36338 13.9168 2.67566 15.3748 3.3002C16.8538 3.92474 17.9948 4.83133 18.7978 6.01998C19.6007 7.18848 20.0022 8.57859 20.0022 10.1903C20.0022 11.7819 19.6007 13.1619 18.7978 14.3304C17.9948 15.4989 16.8538 16.4055 15.3748 17.0502C13.9168 17.6747 12.1736 17.987 10.1452 17.987H6.27845V23.5172H0.00293732ZM9.76484 13.2727H6.27845V7.07767H9.76484C11.0749 7.07767 12.0468 7.34965 12.6807 7.8936C13.3358 8.43756 13.6633 9.20313 13.6633 10.1903C13.6633 11.1573 13.3358 11.9128 12.6807 12.4568C12.0468 13.0007 11.0749 13.2727 9.76484 13.2727Z" fill="url(#paint9_linear_2999_705)"/>
</g>
<defs>
<filter id="filter0_d_2999_705" x="0.00293732" y="1.94116" width="199.996" height="23.0526" filterUnits="userSpaceOnUse" color-interpolation-filters="sRGB">
<feFlood flood-opacity="0" result="BackgroundImageFix"/>
<feColorMatrix in="SourceAlpha" type="matrix" values="0 0 0 0 0 0 0 0 0 0 0 0 0 0 0 0 0 0 127 0" result="hardAlpha"/>
<feOffset dy="1.05263"/>
<feComposite in2="hardAlpha" operator="out"/>
<feColorMatrix type="matrix" values="0 0 0 0 0.552941 0 0 0 0 0.317647 0 0 0 0 0.0431373 0 0 0 1 0"/>
<feBlend mode="normal" in2="BackgroundImageFix" result="effect1_dropShadow_2999_705"/>
<feBlend mode="normal" in="SourceGraphic" in2="effect1_dropShadow_2999_705" result="shape"/>
</filter>
<linearGradient id="paint0_linear_2999_705" x1="-53.6813" y1="-31.7884" x2="-48.8478" y2="41.0469" gradientUnits="userSpaceOnUse">
<stop offset="0.415716" stop-color="#DDAC17"/>
<stop offset="0.432787" stop-color="#FFFF95"/>
<stop offset="1" stop-color="#DDAC17"/>
</linearGradient>
<linearGradient id="paint1_linear_2999_705" x1="-53.6813" y1="-31.7884" x2="-48.8478" y2="41.0469" gradientUnits="userSpaceOnUse">
<stop offset="0.415716" stop-color="#DDAC17"/>
<stop offset="0.432787" stop-color="#FFFF95"/>
<stop offset="1" stop-color="#DDAC17"/>
</linearGradient>
<linearGradient id="paint2_linear_2999_705" x1="-53.6813" y1="-31.7884" x2="-48.8478" y2="41.0469" gradientUnits="userSpaceOnUse">
<stop offset="0.415716" stop-color="#DDAC17"/>
<stop offset="0.432787" stop-color="#FFFF95"/>
<stop offset="1" stop-color="#DDAC17"/>
</linearGradient>
<linearGradient id="paint3_linear_2999_705" x1="-53.6813" y1="-31.7884" x2="-48.8478" y2="41.0469" gradientUnits="userSpaceOnUse">
<stop offset="0.415716" stop-color="#DDAC17"/>
<stop offset="0.432787" stop-color="#FFFF95"/>
<stop offset="1" stop-color="#DDAC17"/>
</linearGradient>
<linearGradient id="paint4_linear_2999_705" x1="-53.6813" y1="-31.7884" x2="-48.8478" y2="41.0469" gradientUnits="userSpaceOnUse">
<stop offset="0.415716" stop-color="#DDAC17"/>
<stop offset="0.432787" stop-color="#FFFF95"/>
<stop offset="1" stop-color="#DDAC17"/>
</linearGradient>
<linearGradient id="paint5_linear_2999_705" x1="-53.6813" y1="-31.7884" x2="-48.8478" y2="41.0469" gradientUnits="userSpaceOnUse">
<stop offset="0.415716" stop-color="#DDAC17"/>
<stop offset="0.432787" stop-color="#FFFF95"/>
<stop offset="1" stop-color="#DDAC17"/>
</linearGradient>
<linearGradient id="paint6_linear_2999_705" x1="-53.6813" y1="-31.7884" x2="-48.8478" y2="41.0469" gradientUnits="userSpaceOnUse">
<stop offset="0.415716" stop-color="#DDAC17"/>
<stop offset="0.432787" stop-color="#FFFF95"/>
<stop offset="1" stop-color="#DDAC17"/>
</linearGradient>
<linearGradient id="paint7_linear_2999_705" x1="-53.6813" y1="-31.7884" x2="-48.8478" y2="41.0469" gradientUnits="userSpaceOnUse">
<stop offset="0.415716" stop-color="#DDAC17"/>
<stop offset="0.432787" stop-color="#FFFF95"/>
<stop offset="1" stop-color="#DDAC17"/>
</linearGradient>
<linearGradient id="paint8_linear_2999_705" x1="-53.6813" y1="-31.7884" x2="-48.8478" y2="41.0469" gradientUnits="userSpaceOnUse">
<stop offset="0.415716" stop-color="#DDAC17"/>
<stop offset="0.432787" stop-color="#FFFF95"/>
<stop offset="1" stop-color="#DDAC17"/>
</linearGradient>
<linearGradient id="paint9_linear_2999_705" x1="-53.6813" y1="-31.7884" x2="-48.8478" y2="41.0469" gradientUnits="userSpaceOnUse">
<stop offset="0.415716" stop-color="#DDAC17"/>
<stop offset="0.432787" stop-color="#FFFF95"/>
<stop offset="1" stop-color="#DDAC17"/>
</linearGradient>
</defs>
</svg>
