<svg width="390" height="15" viewBox="0 0 390 15" fill="none" xmlns="http://www.w3.org/2000/svg">
<g clip-path="url(#clip0_1922_7646)">
<path d="M0.128822 14.7594C1.00564 15.4753 1.97387 16.0116 2.68446 16.1728C3.13118 16.2747 3.64231 16.3176 4.20746 16.2992C4.4464 16.2931 4.67703 16.2808 4.71651 16.2727C4.79962 16.2584 4.8017 16.2523 4.62717 16.4624C4.34875 16.7948 4.08072 17.2679 3.9519 17.6452C3.85009 17.941 3.821 18.1123 3.80853 18.4386C3.80022 18.6976 3.80437 18.7771 3.84177 18.9505C3.96852 19.5583 4.27187 20.115 4.67496 20.4821C4.85572 20.6494 5.27751 20.8961 5.37932 20.8961C5.38971 20.8961 5.40425 20.835 5.41048 20.7575C5.47282 20.1579 5.74916 19.3767 6.10238 18.8037C6.80674 17.6636 8.13443 16.7826 9.57639 16.5031C10.0875 16.4032 10.582 16.3706 10.9913 16.4073C11.3861 16.444 11.3757 16.4358 11.1721 16.5705C10.7836 16.8233 10.3265 17.2414 9.98987 17.6554C9.52653 18.2204 9.14422 18.8893 8.8845 19.5909C8.85333 19.6745 8.81385 19.7765 8.79931 19.8152C8.75775 19.9294 8.6227 20.3965 8.57906 20.5882C8.42947 21.2388 8.33181 22.1157 8.33181 22.8214C8.33181 24.9077 9.23772 26.5964 10.9706 27.7426C11.8578 28.3299 12.905 28.7093 14.0997 28.8745C14.5505 28.9357 15.6227 28.9418 16.0715 28.8847C16.8215 28.7888 17.5778 28.591 18.1991 28.3259C18.4235 28.2321 19.0738 27.9139 19.2816 27.7997C19.3439 27.765 19.4852 27.6875 19.5933 27.6263C19.8405 27.4897 20.0919 27.3347 20.5283 27.0492C21.91 26.1457 23.2106 24.9241 24.4386 23.3822C24.6547 23.111 25.091 22.5359 25.3487 22.181C25.5793 21.8649 25.6977 21.6997 26.1278 21.0899C26.2774 20.8757 26.4333 20.6555 26.4727 20.6004C26.5143 20.5433 26.6244 20.3883 26.72 20.2537C27.4825 19.1728 28.2534 18.3794 29.2133 17.682C30.5825 16.6887 32.1679 16.132 33.2566 16.2666C33.348 16.2788 33.4685 16.2992 33.5267 16.3135C35.6855 16.8866 37.3394 17.115 38.4323 16.9906C39.1387 16.909 40.0072 16.6194 40.9152 16.1585C41.1168 16.0565 41.2871 15.977 41.2913 15.981C41.2975 15.9872 41.2934 16.0422 41.283 16.1034C41.2539 16.3012 41.2622 16.8886 41.2975 17.1211C41.3661 17.5881 41.5573 18.0633 41.8087 18.3896C42.272 18.9933 43.0553 19.4155 43.795 19.4624L44.0111 19.4746L43.9197 19.3339C43.3607 18.4712 43.3607 17.5331 43.9217 16.909C44.1108 16.6969 44.3851 16.5358 44.703 16.446C44.9482 16.3787 45.3699 16.3828 45.6525 16.4562C46.4898 16.6745 46.9594 17.2149 47.0405 18.0552C47.1194 18.8852 46.7267 19.7887 46.1055 20.1986C45.4302 20.6453 45.0043 21.0348 44.7051 21.4753C44.3601 21.9852 44.1981 22.438 44.1212 23.0987C44.0797 23.4414 44.0132 23.6616 43.8594 23.9553C43.4813 24.6834 42.7748 25.387 41.8731 25.9397C41.551 26.1375 41.042 26.3558 40.6825 26.4516C40.0675 26.6148 39.4213 26.6066 38.8001 26.4333C37.6178 26.0988 36.633 25.2565 36.3296 24.3224C36.1592 23.7922 36.1738 23.319 36.3816 22.7072C36.6309 21.9689 37.0464 21.5019 37.6074 21.3285C37.7653 21.2796 37.8152 21.2734 38.0957 21.2734C38.2869 21.2734 38.451 21.2836 38.5216 21.2999C39.3112 21.4876 39.8389 21.9016 39.9553 22.4257C39.9844 22.5583 39.9802 22.8642 39.9449 23.0212C39.8784 23.3312 39.6478 23.7187 39.332 24.0491C39.2863 24.0981 39.2489 24.1429 39.2489 24.1511C39.2489 24.196 39.9408 24.0695 40.2587 23.9655C41.1355 23.6759 41.6611 23.1701 41.817 22.4604C41.8627 22.2585 41.8772 21.7486 41.8481 21.4978C41.6985 20.2496 41.0129 19.2217 40.0031 18.7262C39.7932 18.6242 39.5626 18.5487 39.2987 18.4957C39.0743 18.4529 38.3866 18.4467 38.0957 18.4855C37.4703 18.5712 36.8262 18.7771 36.2631 19.0708C35.8621 19.2788 35.3094 19.6663 35.0414 19.9254C34.8793 20.0804 34.5822 20.425 34.5594 20.4801C34.5552 20.4944 34.5386 20.5086 34.5261 20.5148C34.5074 20.5209 34.5033 20.4556 34.5074 20.2619C34.5344 19.3278 34.121 18.6711 33.3584 18.4304C32.3839 18.1225 30.9711 18.4182 30.3768 19.0545C30.2023 19.2421 30.1109 19.4298 30.0714 19.6847C29.9862 20.2394 30.1524 20.9716 30.5555 21.8119C30.6179 21.9403 30.6677 22.0464 30.6677 22.0505C30.6677 22.0525 30.5867 22.0607 30.4849 22.0688C29.2985 22.1586 28.3947 22.6174 27.842 23.4169C27.5635 23.8166 27.1501 24.7181 26.9194 25.4176C26.7179 26.0356 26.4852 27.0349 26.5434 27.0349C26.5517 27.0349 26.5995 27.0002 26.6452 26.9574C27.1023 26.5556 27.7464 26.2048 28.4757 25.9601C29.7764 25.5257 31.023 25.5196 32.2343 25.9417C32.6354 26.0825 32.6977 26.109 33.026 26.266C33.5537 26.521 33.9589 26.7555 34.6404 27.2021C34.844 27.3347 35.0144 27.4428 35.0185 27.4428C35.0248 27.4428 35.0954 27.4877 35.1806 27.5407C35.5131 27.7548 36.0824 28.0709 36.5041 28.2728C37.5472 28.7725 38.53 29.0723 39.5813 29.211C39.9782 29.264 41.1272 29.262 41.4617 29.211C42.7478 29.007 43.8137 28.4462 44.8609 27.4224C45.3679 26.9248 45.7273 26.5006 46.0307 26.0396C46.0847 25.9601 46.1346 25.8928 46.1449 25.8928C46.1533 25.8928 46.172 25.9825 46.1865 26.0906C46.2384 26.4842 46.3735 26.9044 46.5626 27.2694C46.9407 27.9996 47.7157 28.6318 48.5614 28.901L48.7401 28.9601L48.9042 28.9132C49.0496 28.8704 49.1307 28.8398 49.3675 28.7317C49.781 28.5441 50.2797 28.1648 50.581 27.8119C50.7929 27.5652 51.0443 27.1042 51.1523 26.7698C51.2438 26.4842 51.2604 26.419 51.3082 26.1294L51.3539 25.8683L51.4536 26.0172C51.9751 26.7881 52.7584 27.6141 53.4503 28.1158C54.0363 28.5441 54.7199 28.8888 55.3058 29.056C55.8522 29.211 56.168 29.2477 56.9929 29.2457C57.7284 29.2457 57.8926 29.2314 58.5222 29.1151C59.7792 28.8806 61.1796 28.279 62.5925 27.3714C63.3135 26.9064 63.6355 26.7065 63.7872 26.627C63.8391 26.6005 63.8952 26.5658 63.9119 26.5536C63.9285 26.5393 64.1217 26.4394 64.3399 26.3333C65.6489 25.6889 66.7688 25.4992 68.0258 25.7092C68.4746 25.7847 68.9276 25.9112 69.366 26.0804C69.8418 26.266 70.4672 26.629 70.8162 26.9207C70.9035 26.9961 70.9762 27.0431 70.9762 27.0288C70.9762 26.9757 70.8723 26.4557 70.8183 26.2395C70.6334 25.4992 70.4069 24.8608 70.0911 24.1919C69.8106 23.5923 69.634 23.3272 69.3057 23.0049C68.9463 22.6541 68.5951 22.442 68.0861 22.2748C67.7245 22.1565 67.4295 22.0974 67.122 22.0851C66.9849 22.0811 66.8602 22.0729 66.8457 22.0668C66.827 22.0627 66.8477 22.0036 66.9142 21.8751C67.0389 21.6303 67.1989 21.2469 67.2674 21.0246C67.3921 20.6269 67.4274 20.4332 67.4378 20.0804C67.4482 19.7133 67.4233 19.5256 67.3381 19.3523C67.0264 18.718 65.9647 18.2693 64.878 18.3121C63.9181 18.3489 63.3363 18.7302 63.0932 19.4808C63.0184 19.7173 62.9935 19.9111 63.0018 20.2394C63.006 20.3985 63.0018 20.527 62.9956 20.525C62.9873 20.5209 62.9021 20.423 62.8065 20.3047C62.4824 19.9111 62.2393 19.6969 61.7094 19.3502C60.7807 18.7404 59.6691 18.4141 58.6655 18.4549C58.5055 18.461 58.2957 18.4814 58.198 18.4998C57.1321 18.7017 56.2595 19.495 55.8543 20.631C55.6902 21.096 55.632 21.4815 55.6486 22.024C55.6569 22.3462 55.6652 22.4196 55.713 22.5746C55.8751 23.1069 56.2449 23.5168 56.8163 23.7983C57.1384 23.9553 57.7035 24.1083 58.1253 24.1511L58.2707 24.1654L58.1918 24.0756C57.7575 23.576 57.61 23.317 57.5414 22.9295C57.4999 22.6888 57.5165 22.4889 57.5975 22.2809C57.6786 22.0729 57.7555 21.9648 57.9404 21.7955C58.1939 21.563 58.705 21.3387 59.1102 21.2816C59.3325 21.251 59.6836 21.2694 59.8602 21.3203C60.2197 21.4244 60.5542 21.6711 60.7765 21.9934C60.9573 22.2565 61.1484 22.7194 61.2461 23.1293C61.298 23.3516 61.298 23.8615 61.2461 24.0716C60.9594 25.2443 59.8311 26.2089 58.3954 26.5087C58.1939 26.5495 58.1108 26.5556 57.7097 26.5556C57.2817 26.5536 57.236 26.5515 57.0033 26.4965C56.139 26.2966 55.3037 25.8296 54.5786 25.1402C53.8264 24.4264 53.4545 23.786 53.3797 23.0804C53.2966 22.3115 53.0078 21.6569 52.5008 21.1001C52.2328 20.8044 51.9627 20.58 51.5388 20.2945C51.2583 20.1048 51.1336 19.9988 50.9882 19.8234C50.3212 19.0076 50.2714 17.6718 50.8843 16.9926C51.0505 16.807 51.3934 16.601 51.6988 16.5031C52.8727 16.1218 53.9365 16.7887 53.9947 17.943C54.0009 18.0674 53.9947 18.2326 53.9802 18.3285C53.9365 18.6323 53.7807 19.0321 53.5979 19.3156C53.5605 19.3706 53.5231 19.4298 53.5127 19.4461C53.4857 19.493 53.8867 19.4604 54.136 19.3971C54.5536 19.2911 54.8819 19.1259 55.2268 18.8546C55.738 18.4508 56.0413 17.9471 56.1847 17.2557C56.2221 17.0722 56.2325 16.962 56.2325 16.6439C56.2345 16.4297 56.2283 16.1891 56.2179 16.1075L56.2034 15.9566L56.3426 16.0341C56.6667 16.2135 57.2776 16.493 57.637 16.6276C58.0297 16.7724 58.5429 16.9131 58.9148 16.9743C59.2556 17.0293 60.2031 17.0232 60.7329 16.962C61.7198 16.8478 62.8127 16.6337 63.8495 16.3482C64.4978 16.1707 65.2229 16.2319 66.1351 16.5419C66.6358 16.7132 67.417 17.0905 67.7952 17.3454C68.3416 17.7105 68.4788 17.8125 68.8154 18.0898C69.2579 18.4569 69.7358 18.9301 70.0932 19.3563C70.1514 19.4236 70.2012 19.4828 70.2075 19.4889C70.2469 19.5236 70.6895 20.115 70.8433 20.3373C71.2526 20.9267 71.6557 21.4937 72.1876 22.232C72.3725 22.4849 72.8338 23.0926 73.0831 23.4047C74.525 25.2198 76.0293 26.5413 77.8121 27.5692C79.2312 28.3871 80.216 28.7378 81.5313 28.8949C81.8242 28.9295 82.9441 28.9295 83.235 28.8949C84.2344 28.7745 85.0551 28.5339 85.8634 28.128C86.5199 27.7956 87.0228 27.4367 87.5194 26.9411C88.3899 26.0702 88.9052 25.0485 89.1068 23.7922C89.1587 23.4597 89.1712 22.3584 89.1275 21.8832C89.0569 21.1531 88.9426 20.5698 88.7473 19.958C88.2923 18.5304 87.4072 17.2843 86.3579 16.5868C86.1356 16.4399 86.1335 16.442 86.4805 16.4114C87.4051 16.3257 88.5146 16.5541 89.4039 17.0151C90.0833 17.3658 90.6339 17.8043 91.0682 18.3387C91.4505 18.8077 91.7746 19.44 91.9512 20.0579C92.0032 20.2415 92.0759 20.6106 92.0946 20.7819C92.1008 20.837 92.1112 20.8859 92.1174 20.8921C92.1382 20.9125 92.4125 20.7819 92.587 20.6698C93.0815 20.3434 93.4888 19.7071 93.6571 18.9892C93.7111 18.7649 93.7111 18.2652 93.6571 18.0205C93.5449 17.4943 93.2581 16.9253 92.8696 16.4542C92.7927 16.3624 92.7304 16.2808 92.7304 16.2768C92.7304 16.2707 92.7844 16.2747 92.8488 16.2829C93.0462 16.3074 94.0518 16.2972 94.2575 16.2707C94.7583 16.2013 95.1634 16.0953 95.5042 15.9443C95.7016 15.8566 96.1524 15.616 96.3561 15.4916C96.6677 15.2978 97.1976 14.9103 97.4344 14.7003C97.5092 14.635 97.5134 14.6269 97.4801 14.6024C97.4593 14.5881 97.4074 14.5453 97.3659 14.5086C97.3243 14.4698 97.2495 14.4086 97.1976 14.3699C97.1456 14.3311 97.0999 14.2924 97.0937 14.2863C97.0646 14.2557 96.6636 13.9742 96.4807 13.8559C95.8055 13.4236 95.2569 13.1809 94.6939 13.0667C94.2347 12.9749 93.3745 12.9341 92.907 12.9831C92.8156 12.9912 92.7366 12.9953 92.7324 12.9912C92.7283 12.9871 92.7657 12.9361 92.8176 12.877C93.4036 12.1999 93.7381 11.3494 93.6986 10.6377C93.655 9.84025 93.1667 8.96125 92.5455 8.56763C92.4021 8.47586 92.1361 8.35757 92.1174 8.37796C92.1112 8.38408 92.0967 8.46566 92.0842 8.55947C92.0052 9.18966 91.7476 9.89736 91.3964 10.4643C90.8375 11.3596 89.9566 12.0673 88.8678 12.4936C88.1448 12.775 87.2596 12.9157 86.5636 12.8607C86.1148 12.824 86.1252 12.8362 86.3828 12.6588C87.1828 12.1102 87.8331 11.3331 88.3255 10.342C88.7369 9.5119 88.9759 8.68388 89.1068 7.61929C89.1525 7.2481 89.1712 6.12029 89.1379 5.76746C88.9551 3.85445 87.8954 2.27591 86.121 1.2725C85.3439 0.83198 84.357 0.513824 83.3908 0.391459C83.075 0.350668 82.433 0.315998 82.2211 0.328236C82.1338 0.332314 81.9634 0.34251 81.8429 0.348629C80.7562 0.405733 79.7007 0.709612 78.5704 1.28474C76.4781 2.35341 74.8616 3.68518 73.2202 5.692C72.948 6.02647 72.3642 6.78311 72.1855 7.03804C72.1377 7.10534 72.0297 7.25626 71.9445 7.37455C71.6951 7.71922 71.2526 8.34329 70.9471 8.78177C70.3404 9.65058 69.9851 10.0789 69.393 10.6499C68.3603 11.6472 67.2757 12.3365 66.1101 12.7302C65.5138 12.9321 65.0754 13.0116 64.5663 13.0096C64.2048 13.0096 64.1279 12.9973 63.6314 12.8627C62.7213 12.6139 61.6803 12.414 60.6913 12.2998C60.3069 12.255 59.4551 12.2366 59.1517 12.2672C58.597 12.3243 57.9695 12.4956 57.3046 12.773C57.074 12.8688 56.4901 13.1482 56.3239 13.24C56.2678 13.2706 56.22 13.291 56.2138 13.2849C56.2075 13.2788 56.2117 13.1972 56.2241 13.1034C56.3031 12.4752 56.1888 11.7675 55.9187 11.2393C55.7878 10.9823 55.6673 10.8212 55.4304 10.5908C55.0191 10.1931 54.5079 9.92795 53.9698 9.83617C53.7308 9.79538 53.5023 9.77295 53.5023 9.7913C53.5023 9.79946 53.5438 9.87084 53.5958 9.95242C54.0363 10.6479 54.1215 11.3902 53.8264 11.9898C53.4233 12.8117 52.4094 13.1075 51.4744 12.6792C50.9321 12.4283 50.6204 12.0449 50.4958 11.4739C50.4417 11.2271 50.448 10.7397 50.5062 10.4745C50.6474 9.84025 50.9737 9.34262 51.4557 9.02651C52.3948 8.41263 52.9434 7.7702 53.2114 6.96666C53.3028 6.69541 53.3423 6.50574 53.3859 6.1366C53.4254 5.81437 53.5044 5.56555 53.6602 5.27391C54.1692 4.33168 55.2621 3.39761 56.3592 2.96933C57.2319 2.62874 58.0048 2.60427 58.8858 2.88979C59.9329 3.22834 60.8118 3.99517 61.1381 4.85175C61.2606 5.17602 61.2814 5.29023 61.2814 5.65121C61.2835 5.9245 61.2752 6.01015 61.2336 6.18147C60.9386 7.40514 60.2592 8.04961 59.3096 8.00066C58.7756 7.97415 58.2146 7.74369 57.8864 7.41738C57.6266 7.16041 57.5269 6.92179 57.5248 6.55877C57.5248 6.13252 57.7035 5.74503 58.1211 5.26983L58.2604 5.11076H58.1939C58.0796 5.11076 57.7347 5.16786 57.5144 5.22293C56.6085 5.44727 55.9811 5.92246 55.7567 6.55673C55.6008 6.99113 55.6029 7.72942 55.7567 8.3229C55.9166 8.93269 56.2283 9.4915 56.6459 9.91571C57.3108 10.5948 58.0692 10.8702 59.0811 10.8029C59.8665 10.7498 60.496 10.5745 61.2108 10.2074C61.8819 9.86065 62.4408 9.42012 62.8418 8.91842C62.9187 8.82052 62.9893 8.74099 62.9956 8.74099C63.0018 8.74099 63.008 8.90822 63.008 9.11421C63.0101 9.42828 63.0163 9.51394 63.0558 9.66894C63.1493 10.034 63.3758 10.3868 63.6459 10.5867C64.0698 10.8987 64.7222 11.0252 65.4432 10.9334C66.5361 10.7927 67.3131 10.2849 67.4233 9.6363C67.4607 9.42624 67.4399 8.92454 67.3859 8.6798C67.2924 8.25559 67.1345 7.82323 66.9246 7.41126C66.8685 7.30317 66.829 7.20935 66.8373 7.20324C66.8436 7.19712 66.9142 7.191 66.9953 7.191C67.3194 7.18896 67.816 7.09515 68.1671 6.9687C68.6055 6.80962 68.9982 6.56897 69.2953 6.27528C69.5821 5.99384 69.7192 5.79805 69.9997 5.27391C70.1971 4.90477 70.5233 4.07063 70.6729 3.55669C70.81 3.08966 70.997 2.2494 70.9721 2.22289C70.9679 2.22085 70.9243 2.25348 70.8723 2.29835C70.1347 2.9367 69.0294 3.40781 67.8596 3.58524C67.4565 3.64439 66.7438 3.65051 66.3844 3.59544C65.2541 3.42209 64.3565 3.03255 62.8626 2.06993C62.2476 1.67224 61.9712 1.50296 61.6055 1.30309C60.5189 0.707573 59.4052 0.303761 58.3227 0.116131C57.4542 -0.0347881 56.4382 -0.0327492 55.6632 0.124289C54.9193 0.273169 54.1651 0.623955 53.4316 1.16237C53.1179 1.39283 52.9018 1.5825 52.5527 1.93125C52.1123 2.37177 51.7777 2.7715 51.4702 3.22834L51.3518 3.40373L51.3352 3.2936C51.1648 2.1148 50.6454 1.28882 49.7187 0.725929C49.3883 0.524023 48.8938 0.318037 48.7442 0.318037C48.6216 0.318037 48.1624 0.503628 47.8591 0.676981C47.4207 0.925795 47.0155 1.29494 46.7454 1.69263C46.4524 2.12703 46.2364 2.71644 46.1761 3.24873C46.1699 3.32011 46.1553 3.37722 46.147 3.37722C46.1387 3.37722 46.0785 3.29768 46.012 3.19775C45.451 2.36973 44.5742 1.48664 43.8075 0.976782C43.0449 0.470997 42.2616 0.160999 41.4928 0.0631065C40.8757 -0.0143929 40.3729 -0.0205116 39.7267 0.0447502C38.1497 0.201788 36.5519 0.823822 34.8025 1.96184C33.2649 2.96321 32.3985 3.36498 31.3534 3.55873C30.9046 3.64031 30.1379 3.65866 29.7119 3.5934C28.5089 3.41393 27.4638 2.98564 26.7137 2.36361C26.5475 2.22697 26.533 2.21881 26.533 2.26572C26.533 2.32486 26.6431 2.87144 26.7013 3.10189C26.8239 3.58524 27.0877 4.36636 27.2332 4.68247C27.2623 4.74365 27.3018 4.83747 27.3246 4.8905C27.4036 5.09036 27.6965 5.63898 27.817 5.81641C28.243 6.44048 28.8684 6.86061 29.6953 7.07679C29.9343 7.13797 30.3062 7.191 30.5119 7.191C30.6033 7.191 30.6677 7.19916 30.6677 7.21139C30.6677 7.22363 30.6241 7.31541 30.5721 7.41738C30.1815 8.18217 29.9862 9.03059 30.0714 9.58532C30.142 10.034 30.4288 10.3685 30.9669 10.6254C31.7627 11.0048 32.8203 11.07 33.5184 10.7804C34.1771 10.5072 34.5344 9.86473 34.5074 8.99592C34.5033 8.845 34.5012 8.72059 34.5033 8.72059C34.5053 8.72059 34.5718 8.80625 34.6529 8.90822C35.2554 9.68525 36.3836 10.3868 37.4682 10.6601C38.1497 10.8314 38.9455 10.86 39.4587 10.7315C40.508 10.4704 41.3204 9.65874 41.6985 8.49421C41.8835 7.92316 41.9188 7.10942 41.7796 6.66074C41.5947 6.06522 41.1188 5.61042 40.402 5.34937C40.08 5.23108 39.5294 5.11076 39.3153 5.11076H39.2468L39.4213 5.31878C39.8286 5.80825 39.9761 6.13252 39.9761 6.55877C39.9761 7.08087 39.7101 7.46429 39.1554 7.73757C38.5674 8.02921 38.0001 8.08224 37.4994 7.89869C36.9924 7.70902 36.5727 7.191 36.3525 6.47515C36.2507 6.13864 36.2153 5.93674 36.2153 5.66141C36.2153 5.1597 36.3587 4.72734 36.6808 4.26438C36.8075 4.08083 37.2127 3.65866 37.3685 3.54853C37.4142 3.5159 37.4558 3.48327 37.462 3.47715C37.4994 3.43024 37.9357 3.17327 38.131 3.0815C38.9227 2.7144 39.7309 2.60427 40.483 2.76538C41.3682 2.95505 42.3136 3.49959 43.0553 4.25011C43.4355 4.63556 43.6828 4.96188 43.8698 5.32898C44.0256 5.63286 44.0776 5.81029 44.1212 6.17943C44.1607 6.51594 44.2022 6.70765 44.2874 6.9585C44.5617 7.76817 45.0728 8.37796 45.9891 8.98776C46.4608 9.2998 46.735 9.65262 46.9137 10.1788C47.0051 10.446 47.0425 10.6866 47.0425 11.0048C47.0425 11.4066 46.9781 11.6819 46.8161 11.9939C46.6727 12.2652 46.3029 12.5752 45.9579 12.7118C45.559 12.8688 45.0936 12.9117 44.7238 12.8199C43.9841 12.6404 43.502 12.0102 43.502 11.2291C43.5041 10.8008 43.6703 10.2787 43.9217 9.92795C43.9695 9.86269 44.0069 9.80354 44.0069 9.79538C44.0069 9.77703 43.7701 9.79334 43.581 9.82394C42.7499 9.95854 41.9666 10.5072 41.5905 11.223C41.4762 11.4412 41.3806 11.7125 41.3225 11.9817C41.2747 12.2142 41.2497 12.8852 41.2809 13.1258C41.2913 13.2094 41.2955 13.2829 41.2913 13.289C41.2871 13.293 41.2518 13.2808 41.2165 13.2604C41.0399 13.1605 40.6181 12.9565 40.3189 12.826C39.706 12.5609 39.1928 12.4018 38.6255 12.2958C38.345 12.2448 37.2542 12.2448 36.8179 12.2978C35.7832 12.4202 34.7318 12.6241 33.7532 12.8933C33.3833 12.9953 33.2774 13.0096 32.9325 13.0096C32.7143 13.0096 32.5107 12.9973 32.3736 12.9769C30.9441 12.7526 29.3463 11.8777 28.0705 10.6173C27.3973 9.95242 27.148 9.63835 26.026 8.02921C24.3846 5.67772 23.1545 4.26438 21.7334 3.10393C20.4514 2.05565 18.7975 1.10527 17.5467 0.701454C16.1961 0.265011 14.6108 0.214025 13.1938 0.562773C11.2885 1.03389 9.74053 2.18618 8.95514 3.72393C8.46895 4.67227 8.2861 5.6349 8.34843 6.90751C8.38168 7.57646 8.44817 8.10671 8.56452 8.60842C8.89073 10.032 9.51821 11.1965 10.4387 12.0959C10.6921 12.3427 11.1285 12.6914 11.2864 12.7709L11.3549 12.8056L11.2926 12.8219C11.1555 12.8586 10.661 12.877 10.3369 12.8586C8.58322 12.7628 6.92517 11.8144 6.0816 10.4256C5.73254 9.85045 5.47489 9.11421 5.41256 8.51053C5.39386 8.34329 5.38971 8.34329 5.15076 8.46158C4.92844 8.57171 4.77469 8.68388 4.58353 8.87559C4.2511 9.20598 3.97891 9.724 3.8397 10.291C3.79607 10.4684 3.80437 11.0782 3.85217 11.2801C3.97683 11.8124 4.28226 12.4038 4.6521 12.8342C4.72066 12.9157 4.77054 12.9851 4.76222 12.9892C4.75391 12.9932 4.66249 12.9892 4.56068 12.979C4.30304 12.9525 3.4283 12.9729 3.13741 13.0136C2.39358 13.1136 1.77441 13.3644 0.976547 13.8865C0.594238 14.1374 0 14.5922 0 14.635C0 14.6452 0.0581741 14.7003 0.128822 14.7594ZM11.6458 21.0389C11.8037 19.8417 12.2525 18.9199 13.0234 18.2C13.3454 17.9002 13.7381 17.6045 13.9501 17.5025C14.2077 17.3801 14.7438 17.2251 14.9162 17.2251C14.9329 17.2251 14.856 17.3149 14.7479 17.4229C14.4425 17.7289 14.3116 17.8879 14.1101 18.202C13.9231 18.4916 13.7631 18.8669 13.68 19.2136C13.6239 19.444 13.6239 20.0559 13.68 20.3047C13.7485 20.6208 13.8545 20.9043 13.9875 21.1286C14.4591 21.9342 15.2611 22.3992 16.3312 22.4869C17.0771 22.5501 17.6402 22.3503 18.1492 21.8465C18.7892 21.2123 19.1341 20.1803 18.9886 19.336C18.8764 18.6752 18.3466 17.7431 17.6838 17.0375C17.6339 16.9824 17.6007 16.9396 17.6111 16.9396C17.6215 16.9396 17.7337 16.962 17.8583 16.9906C18.9388 17.2312 20.1543 17.2129 21.0892 16.9437C21.8102 16.7356 22.8491 16.1544 23.7072 15.4814C24.1062 15.1673 24.5799 14.7044 24.5799 14.6248C24.5799 14.5861 24.1623 14.1619 23.9192 13.9559C23.4392 13.55 22.872 13.1686 22.1385 12.7628C21.4923 12.4059 20.8004 12.1999 19.9984 12.1265C19.3543 12.0694 18.4422 12.1346 17.796 12.2876C17.7046 12.31 17.6256 12.3243 17.6215 12.3182C17.6173 12.3141 17.6693 12.2488 17.7357 12.1734C18.2614 11.584 18.6707 10.9334 18.8723 10.3603C18.9782 10.0605 19.0198 9.83209 19.0177 9.54657C19.0156 8.73487 18.6936 7.96395 18.1284 7.4031C17.6298 6.91159 17.0563 6.71377 16.3166 6.77903C15.5853 6.84429 15.0326 7.05844 14.5339 7.47244C14.3054 7.66211 14.0477 7.99658 13.8981 8.29842C13.8254 8.44526 13.7257 8.7471 13.6779 8.95309C13.6343 9.15295 13.6176 9.67913 13.6509 9.87696C13.7049 10.2114 13.8524 10.6336 13.9937 10.8681C14.0332 10.9334 14.0664 10.9925 14.0664 10.9966C14.0664 11.0129 14.2264 11.2434 14.3552 11.4127C14.4176 11.4963 14.5755 11.6717 14.7043 11.8002C14.831 11.9287 14.9329 12.0367 14.9287 12.0408C14.9245 12.0449 14.8248 12.0306 14.7064 12.0062C14.2056 11.9083 13.8607 11.7533 13.495 11.4637C13.1481 11.1904 12.8863 10.9497 12.7096 10.7417C12.6265 10.6458 12.5559 10.5622 12.5476 10.5561C12.4998 10.5133 12.2525 10.1156 12.1507 9.91775C11.8328 9.29368 11.6645 8.63697 11.6105 7.80692C11.5025 6.15292 12.1819 4.87826 13.5179 4.22563C14.4757 3.7586 15.8429 3.6607 17.0688 3.96866C17.7378 4.1359 18.2697 4.37247 18.8889 4.77629C19.9839 5.4901 21.0331 6.6016 22.3712 8.46566C22.6476 8.84704 22.7224 8.95513 23.2875 9.78111C23.8963 10.6662 23.9296 10.7131 24.2599 11.1169C24.7877 11.7635 25.4297 12.41 26.0447 12.9096C26.1237 12.9749 26.2172 13.0524 26.2525 13.083C26.4021 13.2094 26.9319 13.5888 27.2644 13.805C27.6633 14.064 28.2492 14.3964 28.5567 14.5351C28.6668 14.584 28.7562 14.6289 28.7562 14.635C28.7541 14.6411 28.6544 14.6901 28.5339 14.7472C27.6695 15.1449 26.6057 15.8546 25.7725 16.5847C25.4775 16.8458 24.9248 17.3862 24.6942 17.6432C24.129 18.2714 23.9815 18.4671 23.1026 19.754C22.4107 20.7656 21.7334 21.6915 21.3511 22.1504C21.3033 22.2055 21.2555 22.2666 21.2409 22.283C20.9625 22.6276 20.547 23.0804 20.175 23.4434C19.2276 24.3673 18.2448 24.971 17.2225 25.2585C16.3187 25.5135 15.2154 25.5441 14.3677 25.3401C13.094 25.0321 12.2068 24.2694 11.81 23.1395C11.731 22.9132 11.6417 22.5093 11.6147 22.2605C11.5897 22.0199 11.6064 21.3407 11.6458 21.0389ZM68.9982 14.5065C70.3654 13.8519 71.8385 12.7261 72.867 11.5554C72.9418 11.4718 73.0083 11.3984 73.0145 11.3923C73.0208 11.3862 73.1288 11.2577 73.2535 11.1047C73.5277 10.7682 73.6919 10.5439 74.2279 9.76071C75.0029 8.63289 75.1733 8.39428 75.6657 7.74573C76.1997 7.0462 76.4117 6.78923 76.8688 6.29364C77.7664 5.32082 78.6515 4.65392 79.5802 4.25215C80.8331 3.71169 82.4455 3.63827 83.6194 4.07063C84.9035 4.54175 85.693 5.53496 85.8758 6.91567C85.9091 7.16041 85.9091 7.77224 85.8758 8.06796C85.8135 8.61658 85.666 9.2223 85.4998 9.60775C85.1819 10.3379 84.7767 10.8539 84.0869 11.4004C83.7129 11.6982 83.5965 11.7655 83.2662 11.8817C83.0958 11.9409 82.5951 12.0571 82.5805 12.0408C82.5764 12.0367 82.6699 11.9348 82.7904 11.8124C83.3971 11.1944 83.7648 10.5133 83.8583 9.82598C83.929 9.31611 83.8043 8.66553 83.5446 8.19441C83.1457 7.46429 82.4372 6.98094 81.5313 6.81982C81.3505 6.78719 81.203 6.77699 80.9287 6.77699C80.6025 6.77699 80.5443 6.78107 80.3656 6.82798C79.9792 6.92995 79.6924 7.09922 79.3683 7.41534C78.9465 7.82731 78.6723 8.34533 78.5393 8.98572C78.4395 9.46091 78.4666 9.88104 78.6245 10.3399C78.8177 10.9008 79.2 11.5187 79.7319 12.1346C79.8171 12.2366 79.8857 12.3202 79.8836 12.3223C79.8815 12.3243 79.7839 12.3039 79.6654 12.2794C79.0878 12.151 78.4894 12.0959 77.8744 12.1142C77.2241 12.1326 76.7753 12.206 76.233 12.3835C75.2377 12.7098 73.6732 13.7397 73.0124 14.5065L72.9044 14.633L72.9605 14.7003C73.4716 15.3019 74.4191 16.0035 75.4642 16.5521C75.9816 16.8233 76.4553 16.9824 77.0433 17.0803C77.8515 17.2149 78.8572 17.1762 79.7007 16.9783C79.7963 16.9559 79.8774 16.9416 79.8815 16.9457C79.8857 16.9498 79.8213 17.0314 79.7381 17.1252C79.1418 17.7982 78.7013 18.563 78.5351 19.2136C78.4686 19.4767 78.4686 19.9763 78.5372 20.2843C78.6764 20.9226 78.9486 21.4427 79.36 21.8465C79.9397 22.4176 80.5381 22.5909 81.4606 22.4563C82.4392 22.3115 83.2288 21.7568 83.609 20.9471C83.9124 20.3027 83.9581 19.5868 83.742 18.9281C83.5737 18.4202 83.2288 17.89 82.7675 17.4331C82.6179 17.2843 82.5681 17.2251 82.5971 17.2251C82.6782 17.2251 83.1228 17.3332 83.2828 17.3903C83.6049 17.5066 83.8189 17.6391 84.2116 17.9675C84.839 18.4875 85.2297 19.0056 85.5081 19.6888C85.799 20.4005 85.9527 21.3611 85.8966 22.1055C85.8405 22.8234 85.6473 23.4108 85.2962 23.9268C84.7061 24.7895 83.7378 25.3156 82.4974 25.4462C82.2086 25.4768 81.5915 25.4768 81.2923 25.4462C79.8046 25.2952 78.5933 24.6773 77.2905 23.4047C76.4262 22.5603 75.6325 21.5549 74.3921 19.7418C73.7916 18.8628 73.696 18.7282 73.4508 18.4121C73.0332 17.8737 72.6945 17.4964 72.227 17.0456C71.2547 16.1055 70.1119 15.2938 69.0502 14.7859C68.8881 14.7084 68.753 14.6411 68.753 14.635C68.753 14.6289 68.8632 14.5718 68.9982 14.5065Z" fill="white" fill-opacity="0.3"/>
<path d="M97.6288 14.7594C98.5056 15.4753 99.4739 16.0116 100.184 16.1728C100.631 16.2747 101.142 16.3176 101.707 16.2992C101.946 16.2931 102.177 16.2808 102.217 16.2727C102.3 16.2584 102.302 16.2523 102.127 16.4624C101.849 16.7948 101.581 17.2679 101.452 17.6452C101.35 17.941 101.321 18.1123 101.309 18.4386C101.3 18.6976 101.304 18.7771 101.342 18.9505C101.469 19.5583 101.772 20.115 102.175 20.4821C102.356 20.6494 102.778 20.8961 102.879 20.8961C102.89 20.8961 102.904 20.835 102.91 20.7575C102.973 20.1579 103.249 19.3767 103.602 18.8037C104.307 17.6636 105.634 16.7826 107.076 16.5031C107.588 16.4032 108.082 16.3706 108.491 16.4073C108.886 16.444 108.876 16.4358 108.672 16.5705C108.284 16.8233 107.826 17.2414 107.49 17.6554C107.027 18.2204 106.644 18.8893 106.384 19.5909C106.353 19.6745 106.314 19.7765 106.299 19.8152C106.258 19.9294 106.123 20.3965 106.079 20.5882C105.929 21.2388 105.832 22.1157 105.832 22.8214C105.832 24.9077 106.738 26.5964 108.471 27.7426C109.358 28.3299 110.405 28.7093 111.6 28.8745C112.051 28.9357 113.123 28.9418 113.571 28.8847C114.322 28.7888 115.078 28.591 115.699 28.3259C115.923 28.2321 116.574 27.9139 116.782 27.7997C116.844 27.765 116.985 27.6875 117.093 27.6263C117.341 27.4897 117.592 27.3347 118.028 27.0492C119.41 26.1457 120.711 24.9241 121.939 23.3822C122.155 23.111 122.591 22.5359 122.849 22.181C123.079 21.8649 123.198 21.6997 123.628 21.0899C123.777 20.8757 123.933 20.6555 123.973 20.6004C124.014 20.5433 124.124 20.3883 124.22 20.2537C124.983 19.1728 125.753 18.3794 126.713 17.682C128.083 16.6887 129.668 16.132 130.757 16.2666C130.848 16.2788 130.969 16.2992 131.027 16.3135C133.186 16.8866 134.839 17.115 135.932 16.9906C136.639 16.909 137.507 16.6194 138.415 16.1585C138.617 16.0565 138.787 15.977 138.791 15.981C138.798 15.9872 138.793 16.0422 138.783 16.1034C138.754 16.3012 138.762 16.8886 138.798 17.1211C138.866 17.5881 139.057 18.0633 139.309 18.3896C139.772 18.9933 140.555 19.4155 141.295 19.4624L141.511 19.4746L141.42 19.3339C140.861 18.4712 140.861 17.5331 141.422 16.909C141.611 16.6969 141.885 16.5358 142.203 16.446C142.448 16.3787 142.87 16.3828 143.153 16.4562C143.99 16.6745 144.459 17.2149 144.54 18.0552C144.619 18.8852 144.227 19.7887 143.605 20.1986C142.93 20.6453 142.504 21.0348 142.205 21.4753C141.86 21.9852 141.698 22.438 141.621 23.0987C141.58 23.4414 141.513 23.6616 141.359 23.9553C140.981 24.6834 140.275 25.387 139.373 25.9397C139.051 26.1375 138.542 26.3558 138.183 26.4516C137.567 26.6148 136.921 26.6066 136.3 26.4333C135.118 26.0988 134.133 25.2565 133.83 24.3224C133.659 23.7922 133.674 23.319 133.882 22.7072C134.131 21.9689 134.546 21.5019 135.107 21.3285C135.265 21.2796 135.315 21.2734 135.596 21.2734C135.787 21.2734 135.951 21.2836 136.022 21.2999C136.811 21.4876 137.339 21.9016 137.455 22.4257C137.484 22.5583 137.48 22.8642 137.445 23.0212C137.378 23.3312 137.148 23.7187 136.832 24.0491C136.786 24.0981 136.749 24.1429 136.749 24.1511C136.749 24.196 137.441 24.0695 137.759 23.9655C138.635 23.6759 139.161 23.1701 139.317 22.4604C139.363 22.2585 139.377 21.7486 139.348 21.4978C139.199 20.2496 138.513 19.2217 137.503 18.7262C137.293 18.6242 137.063 18.5487 136.799 18.4957C136.574 18.4529 135.887 18.4467 135.596 18.4855C134.97 18.5712 134.326 18.7771 133.763 19.0708C133.362 19.2788 132.809 19.6663 132.541 19.9254C132.379 20.0804 132.082 20.425 132.059 20.4801C132.055 20.4944 132.039 20.5086 132.026 20.5148C132.007 20.5209 132.003 20.4556 132.007 20.2619C132.034 19.3278 131.621 18.6711 130.858 18.4304C129.884 18.1225 128.471 18.4182 127.877 19.0545C127.702 19.2421 127.611 19.4298 127.571 19.6847C127.486 20.2394 127.652 20.9716 128.056 21.8119C128.118 21.9403 128.168 22.0464 128.168 22.0505C128.168 22.0525 128.087 22.0607 127.985 22.0688C126.798 22.1586 125.895 22.6174 125.342 23.4169C125.064 23.8166 124.65 24.7181 124.419 25.4176C124.218 26.0356 123.985 27.0349 124.043 27.0349C124.052 27.0349 124.099 27.0002 124.145 26.9574C124.602 26.5556 125.246 26.2048 125.976 25.9601C127.276 25.5257 128.523 25.5196 129.734 25.9417C130.135 26.0825 130.198 26.109 130.526 26.266C131.054 26.521 131.459 26.7555 132.14 27.2021C132.344 27.3347 132.514 27.4428 132.519 27.4428C132.525 27.4428 132.595 27.4877 132.681 27.5407C133.013 27.7548 133.582 28.0709 134.004 28.2728C135.047 28.7725 136.03 29.0723 137.081 29.211C137.478 29.264 138.627 29.262 138.962 29.211C140.248 29.007 141.314 28.4462 142.361 27.4224C142.868 26.9248 143.227 26.5006 143.531 26.0396C143.585 25.9601 143.635 25.8928 143.645 25.8928C143.653 25.8928 143.672 25.9825 143.686 26.0906C143.738 26.4842 143.873 26.9044 144.063 27.2694C144.441 27.9996 145.216 28.6318 146.061 28.901L146.24 28.9601L146.404 28.9132C146.55 28.8704 146.631 28.8398 146.868 28.7317C147.281 28.5441 147.78 28.1648 148.081 27.8119C148.293 27.5652 148.544 27.1042 148.652 26.7698C148.744 26.4842 148.76 26.419 148.808 26.1294L148.854 25.8683L148.954 26.0172C149.475 26.7881 150.258 27.6141 150.95 28.1158C151.536 28.5441 152.22 28.8888 152.806 29.056C153.352 29.211 153.668 29.2477 154.493 29.2457C155.228 29.2457 155.393 29.2314 156.022 29.1151C157.279 28.8806 158.68 28.279 160.092 27.3714C160.813 26.9064 161.136 26.7065 161.287 26.627C161.339 26.6005 161.395 26.5658 161.412 26.5536C161.428 26.5393 161.622 26.4394 161.84 26.3333C163.149 25.6889 164.269 25.4992 165.526 25.7092C165.975 25.7847 166.428 25.9112 166.866 26.0804C167.342 26.266 167.967 26.629 168.316 26.9207C168.404 26.9961 168.476 27.0431 168.476 27.0288C168.476 26.9757 168.372 26.4557 168.318 26.2395C168.133 25.4992 167.907 24.8608 167.591 24.1919C167.311 23.5923 167.134 23.3272 166.806 23.0049C166.446 22.6541 166.095 22.442 165.586 22.2748C165.225 22.1565 164.93 22.0974 164.622 22.0851C164.485 22.0811 164.36 22.0729 164.346 22.0668C164.327 22.0627 164.348 22.0036 164.414 21.8751C164.539 21.6303 164.699 21.2469 164.767 21.0246C164.892 20.6269 164.927 20.4332 164.938 20.0804C164.948 19.7133 164.923 19.5256 164.838 19.3523C164.526 18.718 163.465 18.2693 162.378 18.3121C161.418 18.3489 160.836 18.7302 160.593 19.4808C160.518 19.7173 160.493 19.9111 160.502 20.2394C160.506 20.3985 160.502 20.527 160.496 20.525C160.487 20.5209 160.402 20.423 160.306 20.3047C159.982 19.9111 159.739 19.6969 159.209 19.3502C158.281 18.7404 157.169 18.4141 156.166 18.4549C156.006 18.461 155.796 18.4814 155.698 18.4998C154.632 18.7017 153.759 19.495 153.354 20.631C153.19 21.096 153.132 21.4815 153.149 22.024C153.157 22.3462 153.165 22.4196 153.213 22.5746C153.375 23.1069 153.745 23.5168 154.316 23.7983C154.638 23.9553 155.204 24.1083 155.625 24.1511L155.771 24.1654L155.692 24.0756C155.258 23.576 155.11 23.317 155.041 22.9295C155 22.6888 155.017 22.4889 155.098 22.2809C155.179 22.0729 155.255 21.9648 155.44 21.7955C155.694 21.563 156.205 21.3387 156.61 21.2816C156.832 21.251 157.184 21.2694 157.36 21.3203C157.72 21.4244 158.054 21.6711 158.277 21.9934C158.457 22.2565 158.648 22.7194 158.746 23.1293C158.798 23.3516 158.798 23.8615 158.746 24.0716C158.459 25.2443 157.331 26.2089 155.895 26.5087C155.694 26.5495 155.611 26.5556 155.21 26.5556C154.782 26.5536 154.736 26.5515 154.503 26.4965C153.639 26.2966 152.804 25.8296 152.079 25.1402C151.326 24.4264 150.954 23.786 150.88 23.0804C150.797 22.3115 150.508 21.6569 150.001 21.1001C149.733 20.8044 149.463 20.58 149.039 20.2945C148.758 20.1048 148.634 19.9988 148.488 19.8234C147.821 19.0076 147.771 17.6718 148.384 16.9926C148.551 16.807 148.893 16.601 149.199 16.5031C150.373 16.1218 151.437 16.7887 151.495 17.943C151.501 18.0674 151.495 18.2326 151.48 18.3285C151.437 18.6323 151.281 19.0321 151.098 19.3156C151.06 19.3706 151.023 19.4298 151.013 19.4461C150.986 19.493 151.387 19.4604 151.636 19.3971C152.054 19.2911 152.382 19.1259 152.727 18.8546C153.238 18.4508 153.541 17.9471 153.685 17.2557C153.722 17.0722 153.732 16.962 153.732 16.6439C153.735 16.4297 153.728 16.1891 153.718 16.1075L153.703 15.9566L153.843 16.0341C154.167 16.2135 154.778 16.493 155.137 16.6276C155.53 16.7724 156.043 16.9131 156.415 16.9743C156.756 17.0293 157.703 17.0232 158.233 16.962C159.22 16.8478 160.313 16.6337 161.35 16.3482C161.998 16.1707 162.723 16.2319 163.635 16.5419C164.136 16.7132 164.917 17.0905 165.295 17.3454C165.842 17.7105 165.979 17.8125 166.315 18.0898C166.758 18.4569 167.236 18.9301 167.593 19.3563C167.651 19.4236 167.701 19.4828 167.707 19.4889C167.747 19.5236 168.19 20.115 168.343 20.3373C168.753 20.9267 169.156 21.4937 169.688 22.232C169.872 22.4849 170.334 23.0926 170.583 23.4047C172.025 25.2198 173.529 26.5413 175.312 27.5692C176.731 28.3871 177.716 28.7378 179.031 28.8949C179.324 28.9295 180.444 28.9295 180.735 28.8949C181.734 28.7745 182.555 28.5339 183.363 28.128C184.02 27.7956 184.523 27.4367 185.019 26.9411C185.89 26.0702 186.405 25.0485 186.607 23.7922C186.659 23.4597 186.671 22.3584 186.628 21.8832C186.557 21.1531 186.443 20.5698 186.247 19.958C185.792 18.5304 184.907 17.2843 183.858 16.5868C183.636 16.4399 183.633 16.442 183.98 16.4114C184.905 16.3257 186.015 16.5541 186.904 17.0151C187.583 17.3658 188.134 17.8043 188.568 18.3387C188.95 18.8077 189.275 19.44 189.451 20.0579C189.503 20.2415 189.576 20.6106 189.595 20.7819C189.601 20.837 189.611 20.8859 189.617 20.8921C189.638 20.9125 189.912 20.7819 190.087 20.6698C190.582 20.3434 190.989 19.7071 191.157 18.9892C191.211 18.7649 191.211 18.2652 191.157 18.0205C191.045 17.4943 190.758 16.9253 190.37 16.4542C190.293 16.3624 190.23 16.2808 190.23 16.2768C190.23 16.2707 190.284 16.2747 190.349 16.2829C190.546 16.3074 191.552 16.2972 191.758 16.2707C192.258 16.2013 192.663 16.0953 193.004 15.9443C193.202 15.8566 193.652 15.616 193.856 15.4916C194.168 15.2978 194.698 14.9103 194.934 14.7003C195.009 14.635 195.013 14.6269 194.98 14.6024C194.959 14.5881 194.907 14.5453 194.866 14.5086C194.824 14.4698 194.749 14.4086 194.698 14.3699C194.646 14.3311 194.6 14.2924 194.594 14.2863C194.565 14.2557 194.164 13.9742 193.981 13.8559C193.305 13.4236 192.757 13.1809 192.194 13.0667C191.735 12.9749 190.874 12.9341 190.407 12.9831C190.316 12.9912 190.237 12.9953 190.232 12.9912C190.228 12.9871 190.266 12.9361 190.318 12.877C190.904 12.1999 191.238 11.3494 191.199 10.6377C191.155 9.84025 190.667 8.96125 190.045 8.56763C189.902 8.47586 189.636 8.35757 189.617 8.37796C189.611 8.38408 189.597 8.46566 189.584 8.55947C189.505 9.18966 189.248 9.89736 188.896 10.4643C188.338 11.3596 187.457 12.0673 186.368 12.4936C185.645 12.775 184.76 12.9157 184.064 12.8607C183.615 12.824 183.625 12.8362 183.883 12.6588C184.683 12.1102 185.333 11.3331 185.826 10.342C186.237 9.5119 186.476 8.68388 186.607 7.61929C186.652 7.2481 186.671 6.12029 186.638 5.76746C186.455 3.85445 185.395 2.27591 183.621 1.2725C182.844 0.83198 181.857 0.513824 180.891 0.391459C180.575 0.350668 179.933 0.315998 179.721 0.328236C179.634 0.332314 179.463 0.34251 179.343 0.348629C178.256 0.405733 177.201 0.709612 176.07 1.28474C173.978 2.35341 172.362 3.68518 170.72 5.692C170.448 6.02647 169.864 6.78311 169.685 7.03804C169.638 7.10534 169.53 7.25626 169.444 7.37455C169.195 7.71922 168.753 8.34329 168.447 8.78177C167.84 9.65058 167.485 10.0789 166.893 10.6499C165.86 11.6472 164.776 12.3365 163.61 12.7302C163.014 12.9321 162.575 13.0116 162.066 13.0096C161.705 13.0096 161.628 12.9973 161.131 12.8627C160.221 12.6139 159.18 12.414 158.191 12.2998C157.807 12.255 156.955 12.2366 156.652 12.2672C156.097 12.3243 155.469 12.4956 154.805 12.773C154.574 12.8688 153.99 13.1482 153.824 13.24C153.768 13.2706 153.72 13.291 153.714 13.2849C153.708 13.2788 153.712 13.1972 153.724 13.1034C153.803 12.4752 153.689 11.7675 153.419 11.2393C153.288 10.9823 153.167 10.8212 152.93 10.5908C152.519 10.1931 152.008 9.92795 151.47 9.83617C151.231 9.79538 151.002 9.77295 151.002 9.7913C151.002 9.79946 151.044 9.87084 151.096 9.95242C151.536 10.6479 151.621 11.3902 151.326 11.9898C150.923 12.8117 149.909 13.1075 148.974 12.6792C148.432 12.4283 148.12 12.0449 147.996 11.4739C147.942 11.2271 147.948 10.7397 148.006 10.4745C148.147 9.84025 148.474 9.34262 148.956 9.02651C149.895 8.41263 150.443 7.7702 150.711 6.96666C150.803 6.69541 150.842 6.50574 150.886 6.1366C150.925 5.81437 151.004 5.56555 151.16 5.27391C151.669 4.33168 152.762 3.39761 153.859 2.96933C154.732 2.62874 155.505 2.60427 156.386 2.88979C157.433 3.22834 158.312 3.99517 158.638 4.85175C158.761 5.17602 158.781 5.29023 158.781 5.65121C158.783 5.9245 158.775 6.01015 158.734 6.18147C158.439 7.40514 157.759 8.04961 156.81 8.00066C156.276 7.97415 155.715 7.74369 155.386 7.41738C155.127 7.16041 155.027 6.92179 155.025 6.55877C155.025 6.13252 155.204 5.74503 155.621 5.26983L155.76 5.11076H155.694C155.58 5.11076 155.235 5.16786 155.014 5.22293C154.109 5.44727 153.481 5.92246 153.257 6.55673C153.101 6.99113 153.103 7.72942 153.257 8.3229C153.417 8.93269 153.728 9.4915 154.146 9.91571C154.811 10.5948 155.569 10.8702 156.581 10.8029C157.366 10.7498 157.996 10.5745 158.711 10.2074C159.382 9.86065 159.941 9.42012 160.342 8.91842C160.419 8.82052 160.489 8.74099 160.496 8.74099C160.502 8.74099 160.508 8.90822 160.508 9.11421C160.51 9.42828 160.516 9.51394 160.556 9.66894C160.649 10.034 160.876 10.3868 161.146 10.5867C161.57 10.8987 162.222 11.0252 162.943 10.9334C164.036 10.7927 164.813 10.2849 164.923 9.6363C164.961 9.42624 164.94 8.92454 164.886 8.6798C164.792 8.25559 164.634 7.82323 164.425 7.41126C164.369 7.30317 164.329 7.20935 164.337 7.20324C164.344 7.19712 164.414 7.191 164.495 7.191C164.819 7.18896 165.316 7.09515 165.667 6.9687C166.106 6.80962 166.498 6.56897 166.795 6.27528C167.082 5.99384 167.219 5.79805 167.5 5.27391C167.697 4.90477 168.023 4.07063 168.173 3.55669C168.31 3.08966 168.497 2.2494 168.472 2.22289C168.468 2.22085 168.424 2.25348 168.372 2.29835C167.635 2.9367 166.529 3.40781 165.36 3.58524C164.957 3.64439 164.244 3.65051 163.884 3.59544C162.754 3.42209 161.856 3.03255 160.363 2.06993C159.748 1.67224 159.471 1.50296 159.106 1.30309C158.019 0.707573 156.905 0.303761 155.823 0.116131C154.954 -0.0347881 153.938 -0.0327492 153.163 0.124289C152.419 0.273169 151.665 0.623955 150.932 1.16237C150.618 1.39283 150.402 1.5825 150.053 1.93125C149.612 2.37177 149.278 2.7715 148.97 3.22834L148.852 3.40373L148.835 3.2936C148.665 2.1148 148.145 1.28882 147.219 0.725929C146.888 0.524023 146.394 0.318037 146.244 0.318037C146.122 0.318037 145.662 0.503628 145.359 0.676981C144.921 0.925795 144.516 1.29494 144.245 1.69263C143.952 2.12703 143.736 2.71644 143.676 3.24873C143.67 3.32011 143.655 3.37722 143.647 3.37722C143.639 3.37722 143.578 3.29768 143.512 3.19775C142.951 2.36973 142.074 1.48664 141.307 0.976782C140.545 0.470997 139.762 0.160999 138.993 0.0631065C138.376 -0.0143929 137.873 -0.0205116 137.227 0.0447502C135.65 0.201788 134.052 0.823822 132.302 1.96184C130.765 2.96321 129.898 3.36498 128.853 3.55873C128.405 3.64031 127.638 3.65866 127.212 3.5934C126.009 3.41393 124.964 2.98564 124.214 2.36361C124.048 2.22697 124.033 2.21881 124.033 2.26572C124.033 2.32486 124.143 2.87144 124.201 3.10189C124.324 3.58524 124.588 4.36636 124.733 4.68247C124.762 4.74365 124.802 4.83747 124.825 4.8905C124.904 5.09036 125.197 5.63898 125.317 5.81641C125.743 6.44048 126.368 6.86061 127.195 7.07679C127.434 7.13797 127.806 7.191 128.012 7.191C128.103 7.191 128.168 7.19916 128.168 7.21139C128.168 7.22363 128.124 7.31541 128.072 7.41738C127.682 8.18217 127.486 9.03059 127.571 9.58532C127.642 10.034 127.929 10.3685 128.467 10.6254C129.263 11.0048 130.32 11.07 131.018 10.7804C131.677 10.5072 132.034 9.86473 132.007 8.99592C132.003 8.845 132.001 8.72059 132.003 8.72059C132.005 8.72059 132.072 8.80625 132.153 8.90822C132.755 9.68525 133.884 10.3868 134.968 10.6601C135.65 10.8314 136.446 10.86 136.959 10.7315C138.008 10.4704 138.82 9.65874 139.199 8.49421C139.383 7.92316 139.419 7.10942 139.28 6.66074C139.095 6.06522 138.619 5.61042 137.902 5.34937C137.58 5.23108 137.029 5.11076 136.815 5.11076H136.747L136.921 5.31878C137.329 5.80825 137.476 6.13252 137.476 6.55877C137.476 7.08087 137.21 7.46429 136.655 7.73757C136.067 8.02921 135.5 8.08224 134.999 7.89869C134.492 7.70902 134.073 7.191 133.852 6.47515C133.751 6.13864 133.715 5.93674 133.715 5.66141C133.715 5.1597 133.859 4.72734 134.181 4.26438C134.307 4.08083 134.713 3.65866 134.868 3.54853C134.914 3.5159 134.956 3.48327 134.962 3.47715C134.999 3.43024 135.436 3.17327 135.631 3.0815C136.423 2.7144 137.231 2.60427 137.983 2.76538C138.868 2.95505 139.814 3.49959 140.555 4.25011C140.936 4.63556 141.183 4.96188 141.37 5.32898C141.526 5.63286 141.578 5.81029 141.621 6.17943C141.661 6.51594 141.702 6.70765 141.787 6.9585C142.062 7.76817 142.573 8.37796 143.489 8.98776C143.961 9.2998 144.235 9.65262 144.414 10.1788C144.505 10.446 144.543 10.6866 144.543 11.0048C144.543 11.4066 144.478 11.6819 144.316 11.9939C144.173 12.2652 143.803 12.5752 143.458 12.7118C143.059 12.8688 142.594 12.9117 142.224 12.8199C141.484 12.6404 141.002 12.0102 141.002 11.2291C141.004 10.8008 141.17 10.2787 141.422 9.92795C141.47 9.86269 141.507 9.80354 141.507 9.79538C141.507 9.77703 141.27 9.79334 141.081 9.82394C140.25 9.95854 139.467 10.5072 139.09 11.223C138.976 11.4412 138.881 11.7125 138.822 11.9817C138.775 12.2142 138.75 12.8852 138.781 13.1258C138.791 13.2094 138.795 13.2829 138.791 13.289C138.787 13.293 138.752 13.2808 138.716 13.2604C138.54 13.1605 138.118 12.9565 137.819 12.826C137.206 12.5609 136.693 12.4018 136.126 12.2958C135.845 12.2448 134.754 12.2448 134.318 12.2978C133.283 12.4202 132.232 12.6241 131.253 12.8933C130.883 12.9953 130.777 13.0096 130.432 13.0096C130.214 13.0096 130.011 12.9973 129.874 12.9769C128.444 12.7526 126.846 11.8777 125.571 10.6173C124.897 9.95242 124.648 9.63835 123.526 8.02921C121.885 5.67772 120.655 4.26438 119.233 3.10393C117.951 2.05565 116.297 1.10527 115.047 0.701454C113.696 0.265011 112.111 0.214025 110.694 0.562773C108.788 1.03389 107.241 2.18618 106.455 3.72393C105.969 4.67227 105.786 5.6349 105.848 6.90751C105.882 7.57646 105.948 8.10671 106.065 8.60842C106.391 10.032 107.018 11.1965 107.939 12.0959C108.192 12.3427 108.628 12.6914 108.786 12.7709L108.855 12.8056L108.793 12.8219C108.655 12.8586 108.161 12.877 107.837 12.8586C106.083 12.7628 104.425 11.8144 103.582 10.4256C103.233 9.85045 102.975 9.11421 102.913 8.51053C102.894 8.34329 102.89 8.34329 102.651 8.46158C102.428 8.57171 102.275 8.68388 102.084 8.87559C101.751 9.20598 101.479 9.724 101.34 10.291C101.296 10.4684 101.304 11.0782 101.352 11.2801C101.477 11.8124 101.782 12.4038 102.152 12.8342C102.221 12.9157 102.271 12.9851 102.262 12.9892C102.254 12.9932 102.162 12.9892 102.061 12.979C101.803 12.9525 100.928 12.9729 100.637 13.0136C99.8936 13.1136 99.2744 13.3644 98.4765 13.8865C98.0942 14.1374 97.5 14.5922 97.5 14.635C97.5 14.6452 97.5582 14.7003 97.6288 14.7594ZM109.146 21.0389C109.304 19.8417 109.753 18.9199 110.523 18.2C110.845 17.9002 111.238 17.6045 111.45 17.5025C111.708 17.3801 112.244 17.2251 112.416 17.2251C112.433 17.2251 112.356 17.3149 112.248 17.4229C111.943 17.7289 111.812 17.8879 111.61 18.202C111.423 18.4916 111.263 18.8669 111.18 19.2136C111.124 19.444 111.124 20.0559 111.18 20.3047C111.249 20.6208 111.354 20.9043 111.487 21.1286C111.959 21.9342 112.761 22.3992 113.831 22.4869C114.577 22.5501 115.14 22.3503 115.649 21.8465C116.289 21.2123 116.634 20.1803 116.489 19.336C116.376 18.6752 115.847 17.7431 115.184 17.0375C115.134 16.9824 115.101 16.9396 115.111 16.9396C115.121 16.9396 115.234 16.962 115.358 16.9906C116.439 17.2312 117.654 17.2129 118.589 16.9437C119.31 16.7356 120.349 16.1544 121.207 15.4814C121.606 15.1673 122.08 14.7044 122.08 14.6248C122.08 14.5861 121.662 14.1619 121.419 13.9559C120.939 13.55 120.372 13.1686 119.639 12.7628C118.992 12.4059 118.3 12.1999 117.498 12.1265C116.854 12.0694 115.942 12.1346 115.296 12.2876C115.205 12.31 115.126 12.3243 115.121 12.3182C115.117 12.3141 115.169 12.2488 115.236 12.1734C115.761 11.584 116.171 10.9334 116.372 10.3603C116.478 10.0605 116.52 9.83209 116.518 9.54657C116.516 8.73487 116.194 7.96395 115.628 7.4031C115.13 6.91159 114.556 6.71377 113.817 6.77903C113.085 6.84429 112.533 7.05844 112.034 7.47244C111.805 7.66211 111.548 7.99658 111.398 8.29842C111.325 8.44526 111.226 8.7471 111.178 8.95309C111.134 9.15295 111.118 9.67913 111.151 9.87696C111.205 10.2114 111.352 10.6336 111.494 10.8681C111.533 10.9334 111.566 10.9925 111.566 10.9966C111.566 11.0129 111.726 11.2434 111.855 11.4127C111.918 11.4963 112.075 11.6717 112.204 11.8002C112.331 11.9287 112.433 12.0367 112.429 12.0408C112.425 12.0449 112.325 12.0306 112.206 12.0062C111.706 11.9083 111.361 11.7533 110.995 11.4637C110.648 11.1904 110.386 10.9497 110.21 10.7417C110.127 10.6458 110.056 10.5622 110.048 10.5561C110 10.5133 109.753 10.1156 109.651 9.91775C109.333 9.29368 109.165 8.63697 109.111 7.80692C109.002 6.15292 109.682 4.87826 111.018 4.22563C111.976 3.7586 113.343 3.6607 114.569 3.96866C115.238 4.1359 115.77 4.37247 116.389 4.77629C117.484 5.4901 118.533 6.6016 119.871 8.46566C120.148 8.84704 120.222 8.95513 120.788 9.78111C121.396 10.6662 121.43 10.7131 121.76 11.1169C122.288 11.7635 122.93 12.41 123.545 12.9096C123.624 12.9749 123.717 13.0524 123.752 13.083C123.902 13.2094 124.432 13.5888 124.764 13.805C125.163 14.064 125.749 14.3964 126.057 14.5351C126.167 14.584 126.256 14.6289 126.256 14.635C126.254 14.6411 126.154 14.6901 126.034 14.7472C125.17 15.1449 124.106 15.8546 123.273 16.5847C122.977 16.8458 122.425 17.3862 122.194 17.6432C121.629 18.2714 121.481 18.4671 120.603 19.754C119.911 20.7656 119.233 21.6915 118.851 22.1504C118.803 22.2055 118.755 22.2666 118.741 22.283C118.463 22.6276 118.047 23.0804 117.675 23.4434C116.728 24.3673 115.745 24.971 114.723 25.2585C113.819 25.5135 112.715 25.5441 111.868 25.3401C110.594 25.0321 109.707 24.2694 109.31 23.1395C109.231 22.9132 109.142 22.5093 109.115 22.2605C109.09 22.0199 109.106 21.3407 109.146 21.0389ZM166.498 14.5065C167.865 13.8519 169.339 12.7261 170.367 11.5554C170.442 11.4718 170.508 11.3984 170.515 11.3923C170.521 11.3862 170.629 11.2577 170.753 11.1047C171.028 10.7682 171.192 10.5439 171.728 9.76071C172.503 8.63289 172.673 8.39428 173.166 7.74573C173.7 7.0462 173.912 6.78923 174.369 6.29364C175.266 5.32082 176.151 4.65392 177.08 4.25215C178.333 3.71169 179.945 3.63827 181.119 4.07063C182.403 4.54175 183.193 5.53496 183.376 6.91567C183.409 7.16041 183.409 7.77224 183.376 8.06796C183.314 8.61658 183.166 9.2223 183 9.60775C182.682 10.3379 182.277 10.8539 181.587 11.4004C181.213 11.6982 181.097 11.7655 180.766 11.8817C180.596 11.9409 180.095 12.0571 180.081 12.0408C180.076 12.0367 180.17 11.9348 180.29 11.8124C180.897 11.1944 181.265 10.5133 181.358 9.82598C181.429 9.31611 181.304 8.66553 181.045 8.19441C180.646 7.46429 179.937 6.98094 179.031 6.81982C178.85 6.78719 178.703 6.77699 178.429 6.77699C178.102 6.77699 178.044 6.78107 177.866 6.82798C177.479 6.92995 177.192 7.09922 176.868 7.41534C176.447 7.82731 176.172 8.34533 176.039 8.98572C175.94 9.46091 175.967 9.88104 176.124 10.3399C176.318 10.9008 176.7 11.5187 177.232 12.1346C177.317 12.2366 177.386 12.3202 177.384 12.3223C177.382 12.3243 177.284 12.3039 177.165 12.2794C176.588 12.151 175.989 12.0959 175.374 12.1142C174.724 12.1326 174.275 12.206 173.733 12.3835C172.738 12.7098 171.173 13.7397 170.512 14.5065L170.404 14.633L170.46 14.7003C170.972 15.3019 171.919 16.0035 172.964 16.5521C173.482 16.8233 173.955 16.9824 174.543 17.0803C175.352 17.2149 176.357 17.1762 177.201 16.9783C177.296 16.9559 177.377 16.9416 177.382 16.9457C177.386 16.9498 177.321 17.0314 177.238 17.1252C176.642 17.7982 176.201 18.563 176.035 19.2136C175.969 19.4767 175.969 19.9763 176.037 20.2843C176.176 20.9226 176.449 21.4427 176.86 21.8465C177.44 22.4176 178.038 22.5909 178.961 22.4563C179.939 22.3115 180.729 21.7568 181.109 20.9471C181.412 20.3027 181.458 19.5868 181.242 18.9281C181.074 18.4202 180.729 17.89 180.268 17.4331C180.118 17.2843 180.068 17.2251 180.097 17.2251C180.178 17.2251 180.623 17.3332 180.783 17.3903C181.105 17.5066 181.319 17.6391 181.712 17.9675C182.339 18.4875 182.73 19.0056 183.008 19.6888C183.299 20.4005 183.453 21.3611 183.397 22.1055C183.341 22.8234 183.147 23.4108 182.796 23.9268C182.206 24.7895 181.238 25.3156 179.997 25.4462C179.709 25.4768 179.092 25.4768 178.792 25.4462C177.305 25.2952 176.093 24.6773 174.791 23.4047C173.926 22.5603 173.132 21.5549 171.892 19.7418C171.292 18.8628 171.196 18.7282 170.951 18.4121C170.533 17.8737 170.195 17.4964 169.727 17.0456C168.755 16.1055 167.612 15.2938 166.55 14.7859C166.388 14.7084 166.253 14.6411 166.253 14.635C166.253 14.6289 166.363 14.5718 166.498 14.5065Z" fill="white" fill-opacity="0.3"/>
<path d="M195.129 14.7594C196.006 15.4753 196.974 16.0116 197.684 16.1728C198.131 16.2747 198.642 16.3176 199.207 16.2992C199.446 16.2931 199.677 16.2808 199.717 16.2727C199.8 16.2584 199.802 16.2523 199.627 16.4624C199.349 16.7948 199.081 17.2679 198.952 17.6452C198.85 17.941 198.821 18.1123 198.809 18.4386C198.8 18.6976 198.804 18.7771 198.842 18.9505C198.969 19.5583 199.272 20.115 199.675 20.4821C199.856 20.6494 200.278 20.8961 200.379 20.8961C200.39 20.8961 200.404 20.835 200.41 20.7575C200.473 20.1579 200.749 19.3767 201.102 18.8037C201.807 17.6636 203.134 16.7826 204.576 16.5031C205.088 16.4032 205.582 16.3706 205.991 16.4073C206.386 16.444 206.376 16.4358 206.172 16.5705C205.784 16.8233 205.326 17.2414 204.99 17.6554C204.527 18.2204 204.144 18.8893 203.884 19.5909C203.853 19.6745 203.814 19.7765 203.799 19.8152C203.758 19.9294 203.623 20.3965 203.579 20.5882C203.429 21.2388 203.332 22.1157 203.332 22.8214C203.332 24.9077 204.238 26.5964 205.971 27.7426C206.858 28.3299 207.905 28.7093 209.1 28.8745C209.551 28.9357 210.623 28.9418 211.071 28.8847C211.822 28.7888 212.578 28.591 213.199 28.3259C213.423 28.2321 214.074 27.9139 214.282 27.7997C214.344 27.765 214.485 27.6875 214.593 27.6263C214.841 27.4897 215.092 27.3347 215.528 27.0492C216.91 26.1457 218.211 24.9241 219.439 23.3822C219.655 23.111 220.091 22.5359 220.349 22.181C220.579 21.8649 220.698 21.6997 221.128 21.0899C221.277 20.8757 221.433 20.6555 221.473 20.6004C221.514 20.5433 221.624 20.3883 221.72 20.2537C222.483 19.1728 223.253 18.3794 224.213 17.682C225.583 16.6887 227.168 16.132 228.257 16.2666C228.348 16.2788 228.469 16.2992 228.527 16.3135C230.686 16.8866 232.339 17.115 233.432 16.9906C234.139 16.909 235.007 16.6194 235.915 16.1585C236.117 16.0565 236.287 15.977 236.291 15.981C236.298 15.9872 236.293 16.0422 236.283 16.1034C236.254 16.3012 236.262 16.8886 236.298 17.1211C236.366 17.5881 236.557 18.0633 236.809 18.3896C237.272 18.9933 238.055 19.4155 238.795 19.4624L239.011 19.4746L238.92 19.3339C238.361 18.4712 238.361 17.5331 238.922 16.909C239.111 16.6969 239.385 16.5358 239.703 16.446C239.948 16.3787 240.37 16.3828 240.653 16.4562C241.49 16.6745 241.959 17.2149 242.04 18.0552C242.119 18.8852 241.727 19.7887 241.105 20.1986C240.43 20.6453 240.004 21.0348 239.705 21.4753C239.36 21.9852 239.198 22.438 239.121 23.0987C239.08 23.4414 239.013 23.6616 238.859 23.9553C238.481 24.6834 237.775 25.387 236.873 25.9397C236.551 26.1375 236.042 26.3558 235.683 26.4516C235.067 26.6148 234.421 26.6066 233.8 26.4333C232.618 26.0988 231.633 25.2565 231.33 24.3224C231.159 23.7922 231.174 23.319 231.382 22.7072C231.631 21.9689 232.046 21.5019 232.607 21.3285C232.765 21.2796 232.815 21.2734 233.096 21.2734C233.287 21.2734 233.451 21.2836 233.522 21.2999C234.311 21.4876 234.839 21.9016 234.955 22.4257C234.984 22.5583 234.98 22.8642 234.945 23.0212C234.878 23.3312 234.648 23.7187 234.332 24.0491C234.286 24.0981 234.249 24.1429 234.249 24.1511C234.249 24.196 234.941 24.0695 235.259 23.9655C236.135 23.6759 236.661 23.1701 236.817 22.4604C236.863 22.2585 236.877 21.7486 236.848 21.4978C236.699 20.2496 236.013 19.2217 235.003 18.7262C234.793 18.6242 234.563 18.5487 234.299 18.4957C234.074 18.4529 233.387 18.4467 233.096 18.4855C232.47 18.5712 231.826 18.7771 231.263 19.0708C230.862 19.2788 230.309 19.6663 230.041 19.9254C229.879 20.0804 229.582 20.425 229.559 20.4801C229.555 20.4944 229.539 20.5086 229.526 20.5148C229.507 20.5209 229.503 20.4556 229.507 20.2619C229.534 19.3278 229.121 18.6711 228.358 18.4304C227.384 18.1225 225.971 18.4182 225.377 19.0545C225.202 19.2421 225.111 19.4298 225.071 19.6847C224.986 20.2394 225.152 20.9716 225.556 21.8119C225.618 21.9403 225.668 22.0464 225.668 22.0505C225.668 22.0525 225.587 22.0607 225.485 22.0688C224.298 22.1586 223.395 22.6174 222.842 23.4169C222.564 23.8166 222.15 24.7181 221.919 25.4176C221.718 26.0356 221.485 27.0349 221.543 27.0349C221.552 27.0349 221.599 27.0002 221.645 26.9574C222.102 26.5556 222.746 26.2048 223.476 25.9601C224.776 25.5257 226.023 25.5196 227.234 25.9417C227.635 26.0825 227.698 26.109 228.026 26.266C228.554 26.521 228.959 26.7555 229.64 27.2021C229.844 27.3347 230.014 27.4428 230.019 27.4428C230.025 27.4428 230.095 27.4877 230.181 27.5407C230.513 27.7548 231.082 28.0709 231.504 28.2728C232.547 28.7725 233.53 29.0723 234.581 29.211C234.978 29.264 236.127 29.262 236.462 29.211C237.748 29.007 238.814 28.4462 239.861 27.4224C240.368 26.9248 240.727 26.5006 241.031 26.0396C241.085 25.9601 241.135 25.8928 241.145 25.8928C241.153 25.8928 241.172 25.9825 241.186 26.0906C241.238 26.4842 241.373 26.9044 241.563 27.2694C241.941 27.9996 242.716 28.6318 243.561 28.901L243.74 28.9601L243.904 28.9132C244.05 28.8704 244.131 28.8398 244.368 28.7317C244.781 28.5441 245.28 28.1648 245.581 27.8119C245.793 27.5652 246.044 27.1042 246.152 26.7698C246.244 26.4842 246.26 26.419 246.308 26.1294L246.354 25.8683L246.454 26.0172C246.975 26.7881 247.758 27.6141 248.45 28.1158C249.036 28.5441 249.72 28.8888 250.306 29.056C250.852 29.211 251.168 29.2477 251.993 29.2457C252.728 29.2457 252.893 29.2314 253.522 29.1151C254.779 28.8806 256.18 28.279 257.592 27.3714C258.313 26.9064 258.636 26.7065 258.787 26.627C258.839 26.6005 258.895 26.5658 258.912 26.5536C258.928 26.5393 259.122 26.4394 259.34 26.3333C260.649 25.6889 261.769 25.4992 263.026 25.7092C263.475 25.7847 263.928 25.9112 264.366 26.0804C264.842 26.266 265.467 26.629 265.816 26.9207C265.904 26.9961 265.976 27.0431 265.976 27.0288C265.976 26.9757 265.872 26.4557 265.818 26.2395C265.633 25.4992 265.407 24.8608 265.091 24.1919C264.811 23.5923 264.634 23.3272 264.306 23.0049C263.946 22.6541 263.595 22.442 263.086 22.2748C262.725 22.1565 262.43 22.0974 262.122 22.0851C261.985 22.0811 261.86 22.0729 261.846 22.0668C261.827 22.0627 261.848 22.0036 261.914 21.8751C262.039 21.6303 262.199 21.2469 262.267 21.0246C262.392 20.6269 262.427 20.4332 262.438 20.0804C262.448 19.7133 262.423 19.5256 262.338 19.3523C262.026 18.718 260.965 18.2693 259.878 18.3121C258.918 18.3489 258.336 18.7302 258.093 19.4808C258.018 19.7173 257.993 19.9111 258.002 20.2394C258.006 20.3985 258.002 20.527 257.996 20.525C257.987 20.5209 257.902 20.423 257.806 20.3047C257.482 19.9111 257.239 19.6969 256.709 19.3502C255.781 18.7404 254.669 18.4141 253.666 18.4549C253.506 18.461 253.296 18.4814 253.198 18.4998C252.132 18.7017 251.259 19.495 250.854 20.631C250.69 21.096 250.632 21.4815 250.649 22.024C250.657 22.3462 250.665 22.4196 250.713 22.5746C250.875 23.1069 251.245 23.5168 251.816 23.7983C252.138 23.9553 252.704 24.1083 253.125 24.1511L253.271 24.1654L253.192 24.0756C252.758 23.576 252.61 23.317 252.541 22.9295C252.5 22.6888 252.517 22.4889 252.598 22.2809C252.679 22.0729 252.755 21.9648 252.94 21.7955C253.194 21.563 253.705 21.3387 254.11 21.2816C254.332 21.251 254.684 21.2694 254.86 21.3203C255.22 21.4244 255.554 21.6711 255.777 21.9934C255.957 22.2565 256.148 22.7194 256.246 23.1293C256.298 23.3516 256.298 23.8615 256.246 24.0716C255.959 25.2443 254.831 26.2089 253.395 26.5087C253.194 26.5495 253.111 26.5556 252.71 26.5556C252.282 26.5536 252.236 26.5515 252.003 26.4965C251.139 26.2966 250.304 25.8296 249.579 25.1402C248.826 24.4264 248.454 23.786 248.38 23.0804C248.297 22.3115 248.008 21.6569 247.501 21.1001C247.233 20.8044 246.963 20.58 246.539 20.2945C246.258 20.1048 246.134 19.9988 245.988 19.8234C245.321 19.0076 245.271 17.6718 245.884 16.9926C246.051 16.807 246.393 16.601 246.699 16.5031C247.873 16.1218 248.937 16.7887 248.995 17.943C249.001 18.0674 248.995 18.2326 248.98 18.3285C248.937 18.6323 248.781 19.0321 248.598 19.3156C248.56 19.3706 248.523 19.4298 248.513 19.4461C248.486 19.493 248.887 19.4604 249.136 19.3971C249.554 19.2911 249.882 19.1259 250.227 18.8546C250.738 18.4508 251.041 17.9471 251.185 17.2557C251.222 17.0722 251.232 16.962 251.232 16.6439C251.235 16.4297 251.228 16.1891 251.218 16.1075L251.203 15.9566L251.343 16.0341C251.667 16.2135 252.278 16.493 252.637 16.6276C253.03 16.7724 253.543 16.9131 253.915 16.9743C254.256 17.0293 255.203 17.0232 255.733 16.962C256.72 16.8478 257.813 16.6337 258.85 16.3482C259.498 16.1707 260.223 16.2319 261.135 16.5419C261.636 16.7132 262.417 17.0905 262.795 17.3454C263.342 17.7105 263.479 17.8125 263.815 18.0898C264.258 18.4569 264.736 18.9301 265.093 19.3563C265.151 19.4236 265.201 19.4828 265.207 19.4889C265.247 19.5236 265.69 20.115 265.843 20.3373C266.253 20.9267 266.656 21.4937 267.188 22.232C267.372 22.4849 267.834 23.0926 268.083 23.4047C269.525 25.2198 271.029 26.5413 272.812 27.5692C274.231 28.3871 275.216 28.7378 276.531 28.8949C276.824 28.9295 277.944 28.9295 278.235 28.8949C279.234 28.7745 280.055 28.5339 280.863 28.128C281.52 27.7956 282.023 27.4367 282.519 26.9411C283.39 26.0702 283.905 25.0485 284.107 23.7922C284.159 23.4597 284.171 22.3584 284.128 21.8832C284.057 21.1531 283.943 20.5698 283.747 19.958C283.292 18.5304 282.407 17.2843 281.358 16.5868C281.136 16.4399 281.133 16.442 281.48 16.4114C282.405 16.3257 283.515 16.5541 284.404 17.0151C285.083 17.3658 285.634 17.8043 286.068 18.3387C286.45 18.8077 286.775 19.44 286.951 20.0579C287.003 20.2415 287.076 20.6106 287.095 20.7819C287.101 20.837 287.111 20.8859 287.117 20.8921C287.138 20.9125 287.412 20.7819 287.587 20.6698C288.082 20.3434 288.489 19.7071 288.657 18.9892C288.711 18.7649 288.711 18.2652 288.657 18.0205C288.545 17.4943 288.258 16.9253 287.87 16.4542C287.793 16.3624 287.73 16.2808 287.73 16.2768C287.73 16.2707 287.784 16.2747 287.849 16.2829C288.046 16.3074 289.052 16.2972 289.258 16.2707C289.758 16.2013 290.163 16.0953 290.504 15.9443C290.702 15.8566 291.152 15.616 291.356 15.4916C291.668 15.2978 292.198 14.9103 292.434 14.7003C292.509 14.635 292.513 14.6269 292.48 14.6024C292.459 14.5881 292.407 14.5453 292.366 14.5086C292.324 14.4698 292.249 14.4086 292.198 14.3699C292.146 14.3311 292.1 14.2924 292.094 14.2863C292.065 14.2557 291.664 13.9742 291.481 13.8559C290.805 13.4236 290.257 13.1809 289.694 13.0667C289.235 12.9749 288.374 12.9341 287.907 12.9831C287.816 12.9912 287.737 12.9953 287.732 12.9912C287.728 12.9871 287.766 12.9361 287.818 12.877C288.404 12.1999 288.738 11.3494 288.699 10.6377C288.655 9.84025 288.167 8.96125 287.545 8.56763C287.402 8.47586 287.136 8.35757 287.117 8.37796C287.111 8.38408 287.097 8.46566 287.084 8.55947C287.005 9.18966 286.748 9.89736 286.396 10.4643C285.838 11.3596 284.957 12.0673 283.868 12.4936C283.145 12.775 282.26 12.9157 281.564 12.8607C281.115 12.824 281.125 12.8362 281.383 12.6588C282.183 12.1102 282.833 11.3331 283.326 10.342C283.737 9.5119 283.976 8.68388 284.107 7.61929C284.152 7.2481 284.171 6.12029 284.138 5.76746C283.955 3.85445 282.895 2.27591 281.121 1.2725C280.344 0.83198 279.357 0.513824 278.391 0.391459C278.075 0.350668 277.433 0.315998 277.221 0.328236C277.134 0.332314 276.963 0.34251 276.843 0.348629C275.756 0.405733 274.701 0.709612 273.57 1.28474C271.478 2.35341 269.862 3.68518 268.22 5.692C267.948 6.02647 267.364 6.78311 267.185 7.03804C267.138 7.10534 267.03 7.25626 266.944 7.37455C266.695 7.71922 266.253 8.34329 265.947 8.78177C265.34 9.65058 264.985 10.0789 264.393 10.6499C263.36 11.6472 262.276 12.3365 261.11 12.7302C260.514 12.9321 260.075 13.0116 259.566 13.0096C259.205 13.0096 259.128 12.9973 258.631 12.8627C257.721 12.6139 256.68 12.414 255.691 12.2998C255.307 12.255 254.455 12.2366 254.152 12.2672C253.597 12.3243 252.969 12.4956 252.305 12.773C252.074 12.8688 251.49 13.1482 251.324 13.24C251.268 13.2706 251.22 13.291 251.214 13.2849C251.208 13.2788 251.212 13.1972 251.224 13.1034C251.303 12.4752 251.189 11.7675 250.919 11.2393C250.788 10.9823 250.667 10.8212 250.43 10.5908C250.019 10.1931 249.508 9.92795 248.97 9.83617C248.731 9.79538 248.502 9.77295 248.502 9.7913C248.502 9.79946 248.544 9.87084 248.596 9.95242C249.036 10.6479 249.121 11.3902 248.826 11.9898C248.423 12.8117 247.409 13.1075 246.474 12.6792C245.932 12.4283 245.62 12.0449 245.496 11.4739C245.442 11.2271 245.448 10.7397 245.506 10.4745C245.647 9.84025 245.974 9.34262 246.456 9.02651C247.395 8.41263 247.943 7.7702 248.211 6.96666C248.303 6.69541 248.342 6.50574 248.386 6.1366C248.425 5.81437 248.504 5.56555 248.66 5.27391C249.169 4.33168 250.262 3.39761 251.359 2.96933C252.232 2.62874 253.005 2.60427 253.886 2.88979C254.933 3.22834 255.812 3.99517 256.138 4.85175C256.261 5.17602 256.281 5.29023 256.281 5.65121C256.283 5.9245 256.275 6.01015 256.234 6.18147C255.939 7.40514 255.259 8.04961 254.31 8.00066C253.776 7.97415 253.215 7.74369 252.886 7.41738C252.627 7.16041 252.527 6.92179 252.525 6.55877C252.525 6.13252 252.704 5.74503 253.121 5.26983L253.26 5.11076H253.194C253.08 5.11076 252.735 5.16786 252.514 5.22293C251.609 5.44727 250.981 5.92246 250.757 6.55673C250.601 6.99113 250.603 7.72942 250.757 8.3229C250.917 8.93269 251.228 9.4915 251.646 9.91571C252.311 10.5948 253.069 10.8702 254.081 10.8029C254.866 10.7498 255.496 10.5745 256.211 10.2074C256.882 9.86065 257.441 9.42012 257.842 8.91842C257.919 8.82052 257.989 8.74099 257.996 8.74099C258.002 8.74099 258.008 8.90822 258.008 9.11421C258.01 9.42828 258.016 9.51394 258.056 9.66894C258.149 10.034 258.376 10.3868 258.646 10.5867C259.07 10.8987 259.722 11.0252 260.443 10.9334C261.536 10.7927 262.313 10.2849 262.423 9.6363C262.461 9.42624 262.44 8.92454 262.386 8.6798C262.292 8.25559 262.134 7.82323 261.925 7.41126C261.869 7.30317 261.829 7.20935 261.837 7.20324C261.844 7.19712 261.914 7.191 261.995 7.191C262.319 7.18896 262.816 7.09515 263.167 6.9687C263.606 6.80962 263.998 6.56897 264.295 6.27528C264.582 5.99384 264.719 5.79805 265 5.27391C265.197 4.90477 265.523 4.07063 265.673 3.55669C265.81 3.08966 265.997 2.2494 265.972 2.22289C265.968 2.22085 265.924 2.25348 265.872 2.29835C265.135 2.9367 264.029 3.40781 262.86 3.58524C262.457 3.64439 261.744 3.65051 261.384 3.59544C260.254 3.42209 259.356 3.03255 257.863 2.06993C257.248 1.67224 256.971 1.50296 256.606 1.30309C255.519 0.707573 254.405 0.303761 253.323 0.116131C252.454 -0.0347881 251.438 -0.0327492 250.663 0.124289C249.919 0.273169 249.165 0.623955 248.432 1.16237C248.118 1.39283 247.902 1.5825 247.553 1.93125C247.112 2.37177 246.778 2.7715 246.47 3.22834L246.352 3.40373L246.335 3.2936C246.165 2.1148 245.645 1.28882 244.719 0.725929C244.388 0.524023 243.894 0.318037 243.744 0.318037C243.622 0.318037 243.162 0.503628 242.859 0.676981C242.421 0.925795 242.016 1.29494 241.745 1.69263C241.452 2.12703 241.236 2.71644 241.176 3.24873C241.17 3.32011 241.155 3.37722 241.147 3.37722C241.139 3.37722 241.078 3.29768 241.012 3.19775C240.451 2.36973 239.574 1.48664 238.807 0.976782C238.045 0.470997 237.262 0.160999 236.493 0.0631065C235.876 -0.0143929 235.373 -0.0205116 234.727 0.0447502C233.15 0.201788 231.552 0.823822 229.802 1.96184C228.265 2.96321 227.398 3.36498 226.353 3.55873C225.905 3.64031 225.138 3.65866 224.712 3.5934C223.509 3.41393 222.464 2.98564 221.714 2.36361C221.548 2.22697 221.533 2.21881 221.533 2.26572C221.533 2.32486 221.643 2.87144 221.701 3.10189C221.824 3.58524 222.088 4.36636 222.233 4.68247C222.262 4.74365 222.302 4.83747 222.325 4.8905C222.404 5.09036 222.697 5.63898 222.817 5.81641C223.243 6.44048 223.868 6.86061 224.695 7.07679C224.934 7.13797 225.306 7.191 225.512 7.191C225.603 7.191 225.668 7.19916 225.668 7.21139C225.668 7.22363 225.624 7.31541 225.572 7.41738C225.182 8.18217 224.986 9.03059 225.071 9.58532C225.142 10.034 225.429 10.3685 225.967 10.6254C226.763 11.0048 227.82 11.07 228.518 10.7804C229.177 10.5072 229.534 9.86473 229.507 8.99592C229.503 8.845 229.501 8.72059 229.503 8.72059C229.505 8.72059 229.572 8.80625 229.653 8.90822C230.255 9.68525 231.384 10.3868 232.468 10.6601C233.15 10.8314 233.946 10.86 234.459 10.7315C235.508 10.4704 236.32 9.65874 236.699 8.49421C236.883 7.92316 236.919 7.10942 236.78 6.66074C236.595 6.06522 236.119 5.61042 235.402 5.34937C235.08 5.23108 234.529 5.11076 234.315 5.11076H234.247L234.421 5.31878C234.829 5.80825 234.976 6.13252 234.976 6.55877C234.976 7.08087 234.71 7.46429 234.155 7.73757C233.567 8.02921 233 8.08224 232.499 7.89869C231.992 7.70902 231.573 7.191 231.352 6.47515C231.251 6.13864 231.215 5.93674 231.215 5.66141C231.215 5.1597 231.359 4.72734 231.681 4.26438C231.807 4.08083 232.213 3.65866 232.368 3.54853C232.414 3.5159 232.456 3.48327 232.462 3.47715C232.499 3.43024 232.936 3.17327 233.131 3.0815C233.923 2.7144 234.731 2.60427 235.483 2.76538C236.368 2.95505 237.314 3.49959 238.055 4.25011C238.436 4.63556 238.683 4.96188 238.87 5.32898C239.026 5.63286 239.078 5.81029 239.121 6.17943C239.161 6.51594 239.202 6.70765 239.287 6.9585C239.562 7.76817 240.073 8.37796 240.989 8.98776C241.461 9.2998 241.735 9.65262 241.914 10.1788C242.005 10.446 242.043 10.6866 242.043 11.0048C242.043 11.4066 241.978 11.6819 241.816 11.9939C241.673 12.2652 241.303 12.5752 240.958 12.7118C240.559 12.8688 240.094 12.9117 239.724 12.8199C238.984 12.6404 238.502 12.0102 238.502 11.2291C238.504 10.8008 238.67 10.2787 238.922 9.92795C238.97 9.86269 239.007 9.80354 239.007 9.79538C239.007 9.77703 238.77 9.79334 238.581 9.82394C237.75 9.95854 236.967 10.5072 236.59 11.223C236.476 11.4412 236.381 11.7125 236.322 11.9817C236.275 12.2142 236.25 12.8852 236.281 13.1258C236.291 13.2094 236.295 13.2829 236.291 13.289C236.287 13.293 236.252 13.2808 236.216 13.2604C236.04 13.1605 235.618 12.9565 235.319 12.826C234.706 12.5609 234.193 12.4018 233.626 12.2958C233.345 12.2448 232.254 12.2448 231.818 12.2978C230.783 12.4202 229.732 12.6241 228.753 12.8933C228.383 12.9953 228.277 13.0096 227.932 13.0096C227.714 13.0096 227.511 12.9973 227.374 12.9769C225.944 12.7526 224.346 11.8777 223.071 10.6173C222.397 9.95242 222.148 9.63835 221.026 8.02921C219.385 5.67772 218.155 4.26438 216.733 3.10393C215.451 2.05565 213.797 1.10527 212.547 0.701454C211.196 0.265011 209.611 0.214025 208.194 0.562773C206.288 1.03389 204.741 2.18618 203.955 3.72393C203.469 4.67227 203.286 5.6349 203.348 6.90751C203.382 7.57646 203.448 8.10671 203.565 8.60842C203.891 10.032 204.518 11.1965 205.439 12.0959C205.692 12.3427 206.128 12.6914 206.286 12.7709L206.355 12.8056L206.293 12.8219C206.155 12.8586 205.661 12.877 205.337 12.8586C203.583 12.7628 201.925 11.8144 201.082 10.4256C200.733 9.85045 200.475 9.11421 200.413 8.51053C200.394 8.34329 200.39 8.34329 200.151 8.46158C199.928 8.57171 199.775 8.68388 199.584 8.87559C199.251 9.20598 198.979 9.724 198.84 10.291C198.796 10.4684 198.804 11.0782 198.852 11.2801C198.977 11.8124 199.282 12.4038 199.652 12.8342C199.721 12.9157 199.771 12.9851 199.762 12.9892C199.754 12.9932 199.662 12.9892 199.561 12.979C199.303 12.9525 198.428 12.9729 198.137 13.0136C197.394 13.1136 196.774 13.3644 195.977 13.8865C195.594 14.1374 195 14.5922 195 14.635C195 14.6452 195.058 14.7003 195.129 14.7594ZM206.646 21.0389C206.804 19.8417 207.253 18.9199 208.023 18.2C208.345 17.9002 208.738 17.6045 208.95 17.5025C209.208 17.3801 209.744 17.2251 209.916 17.2251C209.933 17.2251 209.856 17.3149 209.748 17.4229C209.443 17.7289 209.312 17.8879 209.11 18.202C208.923 18.4916 208.763 18.8669 208.68 19.2136C208.624 19.444 208.624 20.0559 208.68 20.3047C208.749 20.6208 208.854 20.9043 208.987 21.1286C209.459 21.9342 210.261 22.3992 211.331 22.4869C212.077 22.5501 212.64 22.3503 213.149 21.8465C213.789 21.2123 214.134 20.1803 213.989 19.336C213.876 18.6752 213.347 17.7431 212.684 17.0375C212.634 16.9824 212.601 16.9396 212.611 16.9396C212.621 16.9396 212.734 16.962 212.858 16.9906C213.939 17.2312 215.154 17.2129 216.089 16.9437C216.81 16.7356 217.849 16.1544 218.707 15.4814C219.106 15.1673 219.58 14.7044 219.58 14.6248C219.58 14.5861 219.162 14.1619 218.919 13.9559C218.439 13.55 217.872 13.1686 217.139 12.7628C216.492 12.4059 215.8 12.1999 214.998 12.1265C214.354 12.0694 213.442 12.1346 212.796 12.2876C212.705 12.31 212.626 12.3243 212.621 12.3182C212.617 12.3141 212.669 12.2488 212.736 12.1734C213.261 11.584 213.671 10.9334 213.872 10.3603C213.978 10.0605 214.02 9.83209 214.018 9.54657C214.016 8.73487 213.694 7.96395 213.128 7.4031C212.63 6.91159 212.056 6.71377 211.317 6.77903C210.585 6.84429 210.033 7.05844 209.534 7.47244C209.305 7.66211 209.048 7.99658 208.898 8.29842C208.825 8.44526 208.726 8.7471 208.678 8.95309C208.634 9.15295 208.618 9.67913 208.651 9.87696C208.705 10.2114 208.852 10.6336 208.994 10.8681C209.033 10.9334 209.066 10.9925 209.066 10.9966C209.066 11.0129 209.226 11.2434 209.355 11.4127C209.418 11.4963 209.575 11.6717 209.704 11.8002C209.831 11.9287 209.933 12.0367 209.929 12.0408C209.925 12.0449 209.825 12.0306 209.706 12.0062C209.206 11.9083 208.861 11.7533 208.495 11.4637C208.148 11.1904 207.886 10.9497 207.71 10.7417C207.627 10.6458 207.556 10.5622 207.548 10.5561C207.5 10.5133 207.253 10.1156 207.151 9.91775C206.833 9.29368 206.665 8.63697 206.611 7.80692C206.502 6.15292 207.182 4.87826 208.518 4.22563C209.476 3.7586 210.843 3.6607 212.069 3.96866C212.738 4.1359 213.27 4.37247 213.889 4.77629C214.984 5.4901 216.033 6.6016 217.371 8.46566C217.648 8.84704 217.722 8.95513 218.288 9.78111C218.896 10.6662 218.93 10.7131 219.26 11.1169C219.788 11.7635 220.43 12.41 221.045 12.9096C221.124 12.9749 221.217 13.0524 221.252 13.083C221.402 13.2094 221.932 13.5888 222.264 13.805C222.663 14.064 223.249 14.3964 223.557 14.5351C223.667 14.584 223.756 14.6289 223.756 14.635C223.754 14.6411 223.654 14.6901 223.534 14.7472C222.67 15.1449 221.606 15.8546 220.773 16.5847C220.477 16.8458 219.925 17.3862 219.694 17.6432C219.129 18.2714 218.981 18.4671 218.103 19.754C217.411 20.7656 216.733 21.6915 216.351 22.1504C216.303 22.2055 216.255 22.2666 216.241 22.283C215.963 22.6276 215.547 23.0804 215.175 23.4434C214.228 24.3673 213.245 24.971 212.223 25.2585C211.319 25.5135 210.215 25.5441 209.368 25.3401C208.094 25.0321 207.207 24.2694 206.81 23.1395C206.731 22.9132 206.642 22.5093 206.615 22.2605C206.59 22.0199 206.606 21.3407 206.646 21.0389ZM263.998 14.5065C265.365 13.8519 266.839 12.7261 267.867 11.5554C267.942 11.4718 268.008 11.3984 268.015 11.3923C268.021 11.3862 268.129 11.2577 268.253 11.1047C268.528 10.7682 268.692 10.5439 269.228 9.76071C270.003 8.63289 270.173 8.39428 270.666 7.74573C271.2 7.0462 271.412 6.78923 271.869 6.29364C272.766 5.32082 273.651 4.65392 274.58 4.25215C275.833 3.71169 277.445 3.63827 278.619 4.07063C279.903 4.54175 280.693 5.53496 280.876 6.91567C280.909 7.16041 280.909 7.77224 280.876 8.06796C280.814 8.61658 280.666 9.2223 280.5 9.60775C280.182 10.3379 279.777 10.8539 279.087 11.4004C278.713 11.6982 278.597 11.7655 278.266 11.8817C278.096 11.9409 277.595 12.0571 277.581 12.0408C277.576 12.0367 277.67 11.9348 277.79 11.8124C278.397 11.1944 278.765 10.5133 278.858 9.82598C278.929 9.31611 278.804 8.66553 278.545 8.19441C278.146 7.46429 277.437 6.98094 276.531 6.81982C276.35 6.78719 276.203 6.77699 275.929 6.77699C275.602 6.77699 275.544 6.78107 275.366 6.82798C274.979 6.92995 274.692 7.09922 274.368 7.41534C273.947 7.82731 273.672 8.34533 273.539 8.98572C273.44 9.46091 273.467 9.88104 273.624 10.3399C273.818 10.9008 274.2 11.5187 274.732 12.1346C274.817 12.2366 274.886 12.3202 274.884 12.3223C274.882 12.3243 274.784 12.3039 274.665 12.2794C274.088 12.151 273.489 12.0959 272.874 12.1142C272.224 12.1326 271.775 12.206 271.233 12.3835C270.238 12.7098 268.673 13.7397 268.012 14.5065L267.904 14.633L267.96 14.7003C268.472 15.3019 269.419 16.0035 270.464 16.5521C270.982 16.8233 271.455 16.9824 272.043 17.0803C272.852 17.2149 273.857 17.1762 274.701 16.9783C274.796 16.9559 274.877 16.9416 274.882 16.9457C274.886 16.9498 274.821 17.0314 274.738 17.1252C274.142 17.7982 273.701 18.563 273.535 19.2136C273.469 19.4767 273.469 19.9763 273.537 20.2843C273.676 20.9226 273.949 21.4427 274.36 21.8465C274.94 22.4176 275.538 22.5909 276.461 22.4563C277.439 22.3115 278.229 21.7568 278.609 20.9471C278.912 20.3027 278.958 19.5868 278.742 18.9281C278.574 18.4202 278.229 17.89 277.768 17.4331C277.618 17.2843 277.568 17.2251 277.597 17.2251C277.678 17.2251 278.123 17.3332 278.283 17.3903C278.605 17.5066 278.819 17.6391 279.212 17.9675C279.839 18.4875 280.23 19.0056 280.508 19.6888C280.799 20.4005 280.953 21.3611 280.897 22.1055C280.841 22.8234 280.647 23.4108 280.296 23.9268C279.706 24.7895 278.738 25.3156 277.497 25.4462C277.209 25.4768 276.592 25.4768 276.292 25.4462C274.805 25.2952 273.593 24.6773 272.291 23.4047C271.426 22.5603 270.632 21.5549 269.392 19.7418C268.792 18.8628 268.696 18.7282 268.451 18.4121C268.033 17.8737 267.695 17.4964 267.227 17.0456C266.255 16.1055 265.112 15.2938 264.05 14.7859C263.888 14.7084 263.753 14.6411 263.753 14.635C263.753 14.6289 263.863 14.5718 263.998 14.5065Z" fill="white" fill-opacity="0.3"/>
<path d="M292.629 14.7594C293.506 15.4753 294.474 16.0116 295.184 16.1728C295.631 16.2747 296.142 16.3176 296.707 16.2992C296.946 16.2931 297.177 16.2808 297.217 16.2727C297.3 16.2584 297.302 16.2523 297.127 16.4624C296.849 16.7948 296.581 17.2679 296.452 17.6452C296.35 17.941 296.321 18.1123 296.309 18.4386C296.3 18.6976 296.304 18.7771 296.342 18.9505C296.469 19.5583 296.772 20.115 297.175 20.4821C297.356 20.6494 297.778 20.8961 297.879 20.8961C297.89 20.8961 297.904 20.835 297.91 20.7575C297.973 20.1579 298.249 19.3767 298.602 18.8037C299.307 17.6636 300.634 16.7826 302.076 16.5031C302.588 16.4032 303.082 16.3706 303.491 16.4073C303.886 16.444 303.876 16.4358 303.672 16.5705C303.284 16.8233 302.826 17.2414 302.49 17.6554C302.027 18.2204 301.644 18.8893 301.384 19.5909C301.353 19.6745 301.314 19.7765 301.299 19.8152C301.258 19.9294 301.123 20.3965 301.079 20.5882C300.929 21.2388 300.832 22.1157 300.832 22.8214C300.832 24.9077 301.738 26.5964 303.471 27.7426C304.358 28.3299 305.405 28.7093 306.6 28.8745C307.051 28.9357 308.123 28.9418 308.571 28.8847C309.322 28.7888 310.078 28.591 310.699 28.3259C310.923 28.2321 311.574 27.9139 311.782 27.7997C311.844 27.765 311.985 27.6875 312.093 27.6263C312.341 27.4897 312.592 27.3347 313.028 27.0492C314.41 26.1457 315.711 24.9241 316.939 23.3822C317.155 23.111 317.591 22.5359 317.849 22.181C318.079 21.8649 318.198 21.6997 318.628 21.0899C318.777 20.8757 318.933 20.6555 318.973 20.6004C319.014 20.5433 319.124 20.3883 319.22 20.2537C319.983 19.1728 320.753 18.3794 321.713 17.682C323.083 16.6887 324.668 16.132 325.757 16.2666C325.848 16.2788 325.969 16.2992 326.027 16.3135C328.186 16.8866 329.839 17.115 330.932 16.9906C331.639 16.909 332.507 16.6194 333.415 16.1585C333.617 16.0565 333.787 15.977 333.791 15.981C333.798 15.9872 333.793 16.0422 333.783 16.1034C333.754 16.3012 333.762 16.8886 333.798 17.1211C333.866 17.5881 334.057 18.0633 334.309 18.3896C334.772 18.9933 335.555 19.4155 336.295 19.4624L336.511 19.4746L336.42 19.3339C335.861 18.4712 335.861 17.5331 336.422 16.909C336.611 16.6969 336.885 16.5358 337.203 16.446C337.448 16.3787 337.87 16.3828 338.153 16.4562C338.99 16.6745 339.459 17.2149 339.54 18.0552C339.619 18.8852 339.227 19.7887 338.605 20.1986C337.93 20.6453 337.504 21.0348 337.205 21.4753C336.86 21.9852 336.698 22.438 336.621 23.0987C336.58 23.4414 336.513 23.6616 336.359 23.9553C335.981 24.6834 335.275 25.387 334.373 25.9397C334.051 26.1375 333.542 26.3558 333.183 26.4516C332.567 26.6148 331.921 26.6066 331.3 26.4333C330.118 26.0988 329.133 25.2565 328.83 24.3224C328.659 23.7922 328.674 23.319 328.882 22.7072C329.131 21.9689 329.546 21.5019 330.107 21.3285C330.265 21.2796 330.315 21.2734 330.596 21.2734C330.787 21.2734 330.951 21.2836 331.022 21.2999C331.811 21.4876 332.339 21.9016 332.455 22.4257C332.484 22.5583 332.48 22.8642 332.445 23.0212C332.378 23.3312 332.148 23.7187 331.832 24.0491C331.786 24.0981 331.749 24.1429 331.749 24.1511C331.749 24.196 332.441 24.0695 332.759 23.9655C333.635 23.6759 334.161 23.1701 334.317 22.4604C334.363 22.2585 334.377 21.7486 334.348 21.4978C334.199 20.2496 333.513 19.2217 332.503 18.7262C332.293 18.6242 332.063 18.5487 331.799 18.4957C331.574 18.4529 330.887 18.4467 330.596 18.4855C329.97 18.5712 329.326 18.7771 328.763 19.0708C328.362 19.2788 327.809 19.6663 327.541 19.9254C327.379 20.0804 327.082 20.425 327.059 20.4801C327.055 20.4944 327.039 20.5086 327.026 20.5148C327.007 20.5209 327.003 20.4556 327.007 20.2619C327.034 19.3278 326.621 18.6711 325.858 18.4304C324.884 18.1225 323.471 18.4182 322.877 19.0545C322.702 19.2421 322.611 19.4298 322.571 19.6847C322.486 20.2394 322.652 20.9716 323.056 21.8119C323.118 21.9403 323.168 22.0464 323.168 22.0505C323.168 22.0525 323.087 22.0607 322.985 22.0688C321.798 22.1586 320.895 22.6174 320.342 23.4169C320.064 23.8166 319.65 24.7181 319.419 25.4176C319.218 26.0356 318.985 27.0349 319.043 27.0349C319.052 27.0349 319.099 27.0002 319.145 26.9574C319.602 26.5556 320.246 26.2048 320.976 25.9601C322.276 25.5257 323.523 25.5196 324.734 25.9417C325.135 26.0825 325.198 26.109 325.526 26.266C326.054 26.521 326.459 26.7555 327.14 27.2021C327.344 27.3347 327.514 27.4428 327.519 27.4428C327.525 27.4428 327.595 27.4877 327.681 27.5407C328.013 27.7548 328.582 28.0709 329.004 28.2728C330.047 28.7725 331.03 29.0723 332.081 29.211C332.478 29.264 333.627 29.262 333.962 29.211C335.248 29.007 336.314 28.4462 337.361 27.4224C337.868 26.9248 338.227 26.5006 338.531 26.0396C338.585 25.9601 338.635 25.8928 338.645 25.8928C338.653 25.8928 338.672 25.9825 338.686 26.0906C338.738 26.4842 338.873 26.9044 339.063 27.2694C339.441 27.9996 340.216 28.6318 341.061 28.901L341.24 28.9601L341.404 28.9132C341.55 28.8704 341.631 28.8398 341.868 28.7317C342.281 28.5441 342.78 28.1648 343.081 27.8119C343.293 27.5652 343.544 27.1042 343.652 26.7698C343.744 26.4842 343.76 26.419 343.808 26.1294L343.854 25.8683L343.954 26.0172C344.475 26.7881 345.258 27.6141 345.95 28.1158C346.536 28.5441 347.22 28.8888 347.806 29.056C348.352 29.211 348.668 29.2477 349.493 29.2457C350.228 29.2457 350.393 29.2314 351.022 29.1151C352.279 28.8806 353.68 28.279 355.092 27.3714C355.813 26.9064 356.136 26.7065 356.287 26.627C356.339 26.6005 356.395 26.5658 356.412 26.5536C356.428 26.5393 356.622 26.4394 356.84 26.3333C358.149 25.6889 359.269 25.4992 360.526 25.7092C360.975 25.7847 361.428 25.9112 361.866 26.0804C362.342 26.266 362.967 26.629 363.316 26.9207C363.404 26.9961 363.476 27.0431 363.476 27.0288C363.476 26.9757 363.372 26.4557 363.318 26.2395C363.133 25.4992 362.907 24.8608 362.591 24.1919C362.311 23.5923 362.134 23.3272 361.806 23.0049C361.446 22.6541 361.095 22.442 360.586 22.2748C360.225 22.1565 359.93 22.0974 359.622 22.0851C359.485 22.0811 359.36 22.0729 359.346 22.0668C359.327 22.0627 359.348 22.0036 359.414 21.8751C359.539 21.6303 359.699 21.2469 359.767 21.0246C359.892 20.6269 359.927 20.4332 359.938 20.0804C359.948 19.7133 359.923 19.5256 359.838 19.3523C359.526 18.718 358.465 18.2693 357.378 18.3121C356.418 18.3489 355.836 18.7302 355.593 19.4808C355.518 19.7173 355.493 19.9111 355.502 20.2394C355.506 20.3985 355.502 20.527 355.496 20.525C355.487 20.5209 355.402 20.423 355.306 20.3047C354.982 19.9111 354.739 19.6969 354.209 19.3502C353.281 18.7404 352.169 18.4141 351.166 18.4549C351.006 18.461 350.796 18.4814 350.698 18.4998C349.632 18.7017 348.759 19.495 348.354 20.631C348.19 21.096 348.132 21.4815 348.149 22.024C348.157 22.3462 348.165 22.4196 348.213 22.5746C348.375 23.1069 348.745 23.5168 349.316 23.7983C349.638 23.9553 350.204 24.1083 350.625 24.1511L350.771 24.1654L350.692 24.0756C350.258 23.576 350.11 23.317 350.041 22.9295C350 22.6888 350.017 22.4889 350.098 22.2809C350.179 22.0729 350.255 21.9648 350.44 21.7955C350.694 21.563 351.205 21.3387 351.61 21.2816C351.832 21.251 352.184 21.2694 352.36 21.3203C352.72 21.4244 353.054 21.6711 353.277 21.9934C353.457 22.2565 353.648 22.7194 353.746 23.1293C353.798 23.3516 353.798 23.8615 353.746 24.0716C353.459 25.2443 352.331 26.2089 350.895 26.5087C350.694 26.5495 350.611 26.5556 350.21 26.5556C349.782 26.5536 349.736 26.5515 349.503 26.4965C348.639 26.2966 347.804 25.8296 347.079 25.1402C346.326 24.4264 345.954 23.786 345.88 23.0804C345.797 22.3115 345.508 21.6569 345.001 21.1001C344.733 20.8044 344.463 20.58 344.039 20.2945C343.758 20.1048 343.634 19.9988 343.488 19.8234C342.821 19.0076 342.771 17.6718 343.384 16.9926C343.551 16.807 343.893 16.601 344.199 16.5031C345.373 16.1218 346.437 16.7887 346.495 17.943C346.501 18.0674 346.495 18.2326 346.48 18.3285C346.437 18.6323 346.281 19.0321 346.098 19.3156C346.06 19.3706 346.023 19.4298 346.013 19.4461C345.986 19.493 346.387 19.4604 346.636 19.3971C347.054 19.2911 347.382 19.1259 347.727 18.8546C348.238 18.4508 348.541 17.9471 348.685 17.2557C348.722 17.0722 348.732 16.962 348.732 16.6439C348.735 16.4297 348.728 16.1891 348.718 16.1075L348.703 15.9566L348.843 16.0341C349.167 16.2135 349.778 16.493 350.137 16.6276C350.53 16.7724 351.043 16.9131 351.415 16.9743C351.756 17.0293 352.703 17.0232 353.233 16.962C354.22 16.8478 355.313 16.6337 356.35 16.3482C356.998 16.1707 357.723 16.2319 358.635 16.5419C359.136 16.7132 359.917 17.0905 360.295 17.3454C360.842 17.7105 360.979 17.8125 361.315 18.0898C361.758 18.4569 362.236 18.9301 362.593 19.3563C362.651 19.4236 362.701 19.4828 362.707 19.4889C362.747 19.5236 363.19 20.115 363.343 20.3373C363.753 20.9267 364.156 21.4937 364.688 22.232C364.872 22.4849 365.334 23.0926 365.583 23.4047C367.025 25.2198 368.529 26.5413 370.312 27.5692C371.731 28.3871 372.716 28.7378 374.031 28.8949C374.324 28.9295 375.444 28.9295 375.735 28.8949C376.734 28.7745 377.555 28.5339 378.363 28.128C379.02 27.7956 379.523 27.4367 380.019 26.9411C380.89 26.0702 381.405 25.0485 381.607 23.7922C381.659 23.4597 381.671 22.3584 381.628 21.8832C381.557 21.1531 381.443 20.5698 381.247 19.958C380.792 18.5304 379.907 17.2843 378.858 16.5868C378.636 16.4399 378.633 16.442 378.98 16.4114C379.905 16.3257 381.015 16.5541 381.904 17.0151C382.583 17.3658 383.134 17.8043 383.568 18.3387C383.95 18.8077 384.275 19.44 384.451 20.0579C384.503 20.2415 384.576 20.6106 384.595 20.7819C384.601 20.837 384.611 20.8859 384.617 20.8921C384.638 20.9125 384.912 20.7819 385.087 20.6698C385.582 20.3434 385.989 19.7071 386.157 18.9892C386.211 18.7649 386.211 18.2652 386.157 18.0205C386.045 17.4943 385.758 16.9253 385.37 16.4542C385.293 16.3624 385.23 16.2808 385.23 16.2768C385.23 16.2707 385.284 16.2747 385.349 16.2829C385.546 16.3074 386.552 16.2972 386.758 16.2707C387.258 16.2013 387.663 16.0953 388.004 15.9443C388.202 15.8566 388.652 15.616 388.856 15.4916C389.168 15.2978 389.698 14.9103 389.934 14.7003C390.009 14.635 390.013 14.6269 389.98 14.6024C389.959 14.5881 389.907 14.5453 389.866 14.5086C389.824 14.4698 389.749 14.4086 389.698 14.3699C389.646 14.3311 389.6 14.2924 389.594 14.2863C389.565 14.2557 389.164 13.9742 388.981 13.8559C388.305 13.4236 387.757 13.1809 387.194 13.0667C386.735 12.9749 385.874 12.9341 385.407 12.9831C385.316 12.9912 385.237 12.9953 385.232 12.9912C385.228 12.9871 385.266 12.9361 385.318 12.877C385.904 12.1999 386.238 11.3494 386.199 10.6377C386.155 9.84025 385.667 8.96125 385.045 8.56763C384.902 8.47586 384.636 8.35757 384.617 8.37796C384.611 8.38408 384.597 8.46566 384.584 8.55947C384.505 9.18966 384.248 9.89736 383.896 10.4643C383.338 11.3596 382.457 12.0673 381.368 12.4936C380.645 12.775 379.76 12.9157 379.064 12.8607C378.615 12.824 378.625 12.8362 378.883 12.6588C379.683 12.1102 380.333 11.3331 380.826 10.342C381.237 9.5119 381.476 8.68388 381.607 7.61929C381.652 7.2481 381.671 6.12029 381.638 5.76746C381.455 3.85445 380.395 2.27591 378.621 1.2725C377.844 0.83198 376.857 0.513824 375.891 0.391459C375.575 0.350668 374.933 0.315998 374.721 0.328236C374.634 0.332314 374.463 0.34251 374.343 0.348629C373.256 0.405733 372.201 0.709612 371.07 1.28474C368.978 2.35341 367.362 3.68518 365.72 5.692C365.448 6.02647 364.864 6.78311 364.685 7.03804C364.638 7.10534 364.53 7.25626 364.444 7.37455C364.195 7.71922 363.753 8.34329 363.447 8.78177C362.84 9.65058 362.485 10.0789 361.893 10.6499C360.86 11.6472 359.776 12.3365 358.61 12.7302C358.014 12.9321 357.575 13.0116 357.066 13.0096C356.705 13.0096 356.628 12.9973 356.131 12.8627C355.221 12.6139 354.18 12.414 353.191 12.2998C352.807 12.255 351.955 12.2366 351.652 12.2672C351.097 12.3243 350.469 12.4956 349.805 12.773C349.574 12.8688 348.99 13.1482 348.824 13.24C348.768 13.2706 348.72 13.291 348.714 13.2849C348.708 13.2788 348.712 13.1972 348.724 13.1034C348.803 12.4752 348.689 11.7675 348.419 11.2393C348.288 10.9823 348.167 10.8212 347.93 10.5908C347.519 10.1931 347.008 9.92795 346.47 9.83617C346.231 9.79538 346.002 9.77295 346.002 9.7913C346.002 9.79946 346.044 9.87084 346.096 9.95242C346.536 10.6479 346.621 11.3902 346.326 11.9898C345.923 12.8117 344.909 13.1075 343.974 12.6792C343.432 12.4283 343.12 12.0449 342.996 11.4739C342.942 11.2271 342.948 10.7397 343.006 10.4745C343.147 9.84025 343.474 9.34262 343.956 9.02651C344.895 8.41263 345.443 7.7702 345.711 6.96666C345.803 6.69541 345.842 6.50574 345.886 6.1366C345.925 5.81437 346.004 5.56555 346.16 5.27391C346.669 4.33168 347.762 3.39761 348.859 2.96933C349.732 2.62874 350.505 2.60427 351.386 2.88979C352.433 3.22834 353.312 3.99517 353.638 4.85175C353.761 5.17602 353.781 5.29023 353.781 5.65121C353.783 5.9245 353.775 6.01015 353.734 6.18147C353.439 7.40514 352.759 8.04961 351.81 8.00066C351.276 7.97415 350.715 7.74369 350.386 7.41738C350.127 7.16041 350.027 6.92179 350.025 6.55877C350.025 6.13252 350.204 5.74503 350.621 5.26983L350.76 5.11076H350.694C350.58 5.11076 350.235 5.16786 350.014 5.22293C349.109 5.44727 348.481 5.92246 348.257 6.55673C348.101 6.99113 348.103 7.72942 348.257 8.3229C348.417 8.93269 348.728 9.4915 349.146 9.91571C349.811 10.5948 350.569 10.8702 351.581 10.8029C352.366 10.7498 352.996 10.5745 353.711 10.2074C354.382 9.86065 354.941 9.42012 355.342 8.91842C355.419 8.82052 355.489 8.74099 355.496 8.74099C355.502 8.74099 355.508 8.90822 355.508 9.11421C355.51 9.42828 355.516 9.51394 355.556 9.66894C355.649 10.034 355.876 10.3868 356.146 10.5867C356.57 10.8987 357.222 11.0252 357.943 10.9334C359.036 10.7927 359.813 10.2849 359.923 9.6363C359.961 9.42624 359.94 8.92454 359.886 8.6798C359.792 8.25559 359.634 7.82323 359.425 7.41126C359.369 7.30317 359.329 7.20935 359.337 7.20324C359.344 7.19712 359.414 7.191 359.495 7.191C359.819 7.18896 360.316 7.09515 360.667 6.9687C361.106 6.80962 361.498 6.56897 361.795 6.27528C362.082 5.99384 362.219 5.79805 362.5 5.27391C362.697 4.90477 363.023 4.07063 363.173 3.55669C363.31 3.08966 363.497 2.2494 363.472 2.22289C363.468 2.22085 363.424 2.25348 363.372 2.29835C362.635 2.9367 361.529 3.40781 360.36 3.58524C359.957 3.64439 359.244 3.65051 358.884 3.59544C357.754 3.42209 356.856 3.03255 355.363 2.06993C354.748 1.67224 354.471 1.50296 354.106 1.30309C353.019 0.707573 351.905 0.303761 350.823 0.116131C349.954 -0.0347881 348.938 -0.0327492 348.163 0.124289C347.419 0.273169 346.665 0.623955 345.932 1.16237C345.618 1.39283 345.402 1.5825 345.053 1.93125C344.612 2.37177 344.278 2.7715 343.97 3.22834L343.852 3.40373L343.835 3.2936C343.665 2.1148 343.145 1.28882 342.219 0.725929C341.888 0.524023 341.394 0.318037 341.244 0.318037C341.122 0.318037 340.662 0.503628 340.359 0.676981C339.921 0.925795 339.516 1.29494 339.245 1.69263C338.952 2.12703 338.736 2.71644 338.676 3.24873C338.67 3.32011 338.655 3.37722 338.647 3.37722C338.639 3.37722 338.578 3.29768 338.512 3.19775C337.951 2.36973 337.074 1.48664 336.307 0.976782C335.545 0.470997 334.762 0.160999 333.993 0.0631065C333.376 -0.0143929 332.873 -0.0205116 332.227 0.0447502C330.65 0.201788 329.052 0.823822 327.302 1.96184C325.765 2.96321 324.898 3.36498 323.853 3.55873C323.405 3.64031 322.638 3.65866 322.212 3.5934C321.009 3.41393 319.964 2.98564 319.214 2.36361C319.048 2.22697 319.033 2.21881 319.033 2.26572C319.033 2.32486 319.143 2.87144 319.201 3.10189C319.324 3.58524 319.588 4.36636 319.733 4.68247C319.762 4.74365 319.802 4.83747 319.825 4.8905C319.904 5.09036 320.197 5.63898 320.317 5.81641C320.743 6.44048 321.368 6.86061 322.195 7.07679C322.434 7.13797 322.806 7.191 323.012 7.191C323.103 7.191 323.168 7.19916 323.168 7.21139C323.168 7.22363 323.124 7.31541 323.072 7.41738C322.682 8.18217 322.486 9.03059 322.571 9.58532C322.642 10.034 322.929 10.3685 323.467 10.6254C324.263 11.0048 325.32 11.07 326.018 10.7804C326.677 10.5072 327.034 9.86473 327.007 8.99592C327.003 8.845 327.001 8.72059 327.003 8.72059C327.005 8.72059 327.072 8.80625 327.153 8.90822C327.755 9.68525 328.884 10.3868 329.968 10.6601C330.65 10.8314 331.446 10.86 331.959 10.7315C333.008 10.4704 333.82 9.65874 334.199 8.49421C334.383 7.92316 334.419 7.10942 334.28 6.66074C334.095 6.06522 333.619 5.61042 332.902 5.34937C332.58 5.23108 332.029 5.11076 331.815 5.11076H331.747L331.921 5.31878C332.329 5.80825 332.476 6.13252 332.476 6.55877C332.476 7.08087 332.21 7.46429 331.655 7.73757C331.067 8.02921 330.5 8.08224 329.999 7.89869C329.492 7.70902 329.073 7.191 328.852 6.47515C328.751 6.13864 328.715 5.93674 328.715 5.66141C328.715 5.1597 328.859 4.72734 329.181 4.26438C329.307 4.08083 329.713 3.65866 329.868 3.54853C329.914 3.5159 329.956 3.48327 329.962 3.47715C329.999 3.43024 330.436 3.17327 330.631 3.0815C331.423 2.7144 332.231 2.60427 332.983 2.76538C333.868 2.95505 334.814 3.49959 335.555 4.25011C335.936 4.63556 336.183 4.96188 336.37 5.32898C336.526 5.63286 336.578 5.81029 336.621 6.17943C336.661 6.51594 336.702 6.70765 336.787 6.9585C337.062 7.76817 337.573 8.37796 338.489 8.98776C338.961 9.2998 339.235 9.65262 339.414 10.1788C339.505 10.446 339.543 10.6866 339.543 11.0048C339.543 11.4066 339.478 11.6819 339.316 11.9939C339.173 12.2652 338.803 12.5752 338.458 12.7118C338.059 12.8688 337.594 12.9117 337.224 12.8199C336.484 12.6404 336.002 12.0102 336.002 11.2291C336.004 10.8008 336.17 10.2787 336.422 9.92795C336.47 9.86269 336.507 9.80354 336.507 9.79538C336.507 9.77703 336.27 9.79334 336.081 9.82394C335.25 9.95854 334.467 10.5072 334.09 11.223C333.976 11.4412 333.881 11.7125 333.822 11.9817C333.775 12.2142 333.75 12.8852 333.781 13.1258C333.791 13.2094 333.795 13.2829 333.791 13.289C333.787 13.293 333.752 13.2808 333.716 13.2604C333.54 13.1605 333.118 12.9565 332.819 12.826C332.206 12.5609 331.693 12.4018 331.126 12.2958C330.845 12.2448 329.754 12.2448 329.318 12.2978C328.283 12.4202 327.232 12.6241 326.253 12.8933C325.883 12.9953 325.777 13.0096 325.432 13.0096C325.214 13.0096 325.011 12.9973 324.874 12.9769C323.444 12.7526 321.846 11.8777 320.571 10.6173C319.897 9.95242 319.648 9.63835 318.526 8.02921C316.885 5.67772 315.655 4.26438 314.233 3.10393C312.951 2.05565 311.297 1.10527 310.047 0.701454C308.696 0.265011 307.111 0.214025 305.694 0.562773C303.788 1.03389 302.241 2.18618 301.455 3.72393C300.969 4.67227 300.786 5.6349 300.848 6.90751C300.882 7.57646 300.948 8.10671 301.065 8.60842C301.391 10.032 302.018 11.1965 302.939 12.0959C303.192 12.3427 303.628 12.6914 303.786 12.7709L303.855 12.8056L303.793 12.8219C303.655 12.8586 303.161 12.877 302.837 12.8586C301.083 12.7628 299.425 11.8144 298.582 10.4256C298.233 9.85045 297.975 9.11421 297.913 8.51053C297.894 8.34329 297.89 8.34329 297.651 8.46158C297.428 8.57171 297.275 8.68388 297.084 8.87559C296.751 9.20598 296.479 9.724 296.34 10.291C296.296 10.4684 296.304 11.0782 296.352 11.2801C296.477 11.8124 296.782 12.4038 297.152 12.8342C297.221 12.9157 297.271 12.9851 297.262 12.9892C297.254 12.9932 297.162 12.9892 297.061 12.979C296.803 12.9525 295.928 12.9729 295.637 13.0136C294.894 13.1136 294.274 13.3644 293.477 13.8865C293.094 14.1374 292.5 14.5922 292.5 14.635C292.5 14.6452 292.558 14.7003 292.629 14.7594ZM304.146 21.0389C304.304 19.8417 304.753 18.9199 305.523 18.2C305.845 17.9002 306.238 17.6045 306.45 17.5025C306.708 17.3801 307.244 17.2251 307.416 17.2251C307.433 17.2251 307.356 17.3149 307.248 17.4229C306.943 17.7289 306.812 17.8879 306.61 18.202C306.423 18.4916 306.263 18.8669 306.18 19.2136C306.124 19.444 306.124 20.0559 306.18 20.3047C306.249 20.6208 306.354 20.9043 306.487 21.1286C306.959 21.9342 307.761 22.3992 308.831 22.4869C309.577 22.5501 310.14 22.3503 310.649 21.8465C311.289 21.2123 311.634 20.1803 311.489 19.336C311.376 18.6752 310.847 17.7431 310.184 17.0375C310.134 16.9824 310.101 16.9396 310.111 16.9396C310.121 16.9396 310.234 16.962 310.358 16.9906C311.439 17.2312 312.654 17.2129 313.589 16.9437C314.31 16.7356 315.349 16.1544 316.207 15.4814C316.606 15.1673 317.08 14.7044 317.08 14.6248C317.08 14.5861 316.662 14.1619 316.419 13.9559C315.939 13.55 315.372 13.1686 314.639 12.7628C313.992 12.4059 313.3 12.1999 312.498 12.1265C311.854 12.0694 310.942 12.1346 310.296 12.2876C310.205 12.31 310.126 12.3243 310.121 12.3182C310.117 12.3141 310.169 12.2488 310.236 12.1734C310.761 11.584 311.171 10.9334 311.372 10.3603C311.478 10.0605 311.52 9.83209 311.518 9.54657C311.516 8.73487 311.194 7.96395 310.628 7.4031C310.13 6.91159 309.556 6.71377 308.817 6.77903C308.085 6.84429 307.533 7.05844 307.034 7.47244C306.805 7.66211 306.548 7.99658 306.398 8.29842C306.325 8.44526 306.226 8.7471 306.178 8.95309C306.134 9.15295 306.118 9.67913 306.151 9.87696C306.205 10.2114 306.352 10.6336 306.494 10.8681C306.533 10.9334 306.566 10.9925 306.566 10.9966C306.566 11.0129 306.726 11.2434 306.855 11.4127C306.918 11.4963 307.075 11.6717 307.204 11.8002C307.331 11.9287 307.433 12.0367 307.429 12.0408C307.425 12.0449 307.325 12.0306 307.206 12.0062C306.706 11.9083 306.361 11.7533 305.995 11.4637C305.648 11.1904 305.386 10.9497 305.21 10.7417C305.127 10.6458 305.056 10.5622 305.048 10.5561C305 10.5133 304.753 10.1156 304.651 9.91775C304.333 9.29368 304.165 8.63697 304.111 7.80692C304.002 6.15292 304.682 4.87826 306.018 4.22563C306.976 3.7586 308.343 3.6607 309.569 3.96866C310.238 4.1359 310.77 4.37247 311.389 4.77629C312.484 5.4901 313.533 6.6016 314.871 8.46566C315.148 8.84704 315.222 8.95513 315.788 9.78111C316.396 10.6662 316.43 10.7131 316.76 11.1169C317.288 11.7635 317.93 12.41 318.545 12.9096C318.624 12.9749 318.717 13.0524 318.752 13.083C318.902 13.2094 319.432 13.5888 319.764 13.805C320.163 14.064 320.749 14.3964 321.057 14.5351C321.167 14.584 321.256 14.6289 321.256 14.635C321.254 14.6411 321.154 14.6901 321.034 14.7472C320.17 15.1449 319.106 15.8546 318.273 16.5847C317.977 16.8458 317.425 17.3862 317.194 17.6432C316.629 18.2714 316.481 18.4671 315.603 19.754C314.911 20.7656 314.233 21.6915 313.851 22.1504C313.803 22.2055 313.755 22.2666 313.741 22.283C313.463 22.6276 313.047 23.0804 312.675 23.4434C311.728 24.3673 310.745 24.971 309.723 25.2585C308.819 25.5135 307.715 25.5441 306.868 25.3401C305.594 25.0321 304.707 24.2694 304.31 23.1395C304.231 22.9132 304.142 22.5093 304.115 22.2605C304.09 22.0199 304.106 21.3407 304.146 21.0389ZM361.498 14.5065C362.865 13.8519 364.339 12.7261 365.367 11.5554C365.442 11.4718 365.508 11.3984 365.515 11.3923C365.521 11.3862 365.629 11.2577 365.753 11.1047C366.028 10.7682 366.192 10.5439 366.728 9.76071C367.503 8.63289 367.673 8.39428 368.166 7.74573C368.7 7.0462 368.912 6.78923 369.369 6.29364C370.266 5.32082 371.151 4.65392 372.08 4.25215C373.333 3.71169 374.945 3.63827 376.119 4.07063C377.403 4.54175 378.193 5.53496 378.376 6.91567C378.409 7.16041 378.409 7.77224 378.376 8.06796C378.314 8.61658 378.166 9.2223 378 9.60775C377.682 10.3379 377.277 10.8539 376.587 11.4004C376.213 11.6982 376.097 11.7655 375.766 11.8817C375.596 11.9409 375.095 12.0571 375.081 12.0408C375.076 12.0367 375.17 11.9348 375.29 11.8124C375.897 11.1944 376.265 10.5133 376.358 9.82598C376.429 9.31611 376.304 8.66553 376.045 8.19441C375.646 7.46429 374.937 6.98094 374.031 6.81982C373.85 6.78719 373.703 6.77699 373.429 6.77699C373.102 6.77699 373.044 6.78107 372.866 6.82798C372.479 6.92995 372.192 7.09922 371.868 7.41534C371.447 7.82731 371.172 8.34533 371.039 8.98572C370.94 9.46091 370.967 9.88104 371.124 10.3399C371.318 10.9008 371.7 11.5187 372.232 12.1346C372.317 12.2366 372.386 12.3202 372.384 12.3223C372.382 12.3243 372.284 12.3039 372.165 12.2794C371.588 12.151 370.989 12.0959 370.374 12.1142C369.724 12.1326 369.275 12.206 368.733 12.3835C367.738 12.7098 366.173 13.7397 365.512 14.5065L365.404 14.633L365.46 14.7003C365.972 15.3019 366.919 16.0035 367.964 16.5521C368.482 16.8233 368.955 16.9824 369.543 17.0803C370.352 17.2149 371.357 17.1762 372.201 16.9783C372.296 16.9559 372.377 16.9416 372.382 16.9457C372.386 16.9498 372.321 17.0314 372.238 17.1252C371.642 17.7982 371.201 18.563 371.035 19.2136C370.969 19.4767 370.969 19.9763 371.037 20.2843C371.176 20.9226 371.449 21.4427 371.86 21.8465C372.44 22.4176 373.038 22.5909 373.961 22.4563C374.939 22.3115 375.729 21.7568 376.109 20.9471C376.412 20.3027 376.458 19.5868 376.242 18.9281C376.074 18.4202 375.729 17.89 375.268 17.4331C375.118 17.2843 375.068 17.2251 375.097 17.2251C375.178 17.2251 375.623 17.3332 375.783 17.3903C376.105 17.5066 376.319 17.6391 376.712 17.9675C377.339 18.4875 377.73 19.0056 378.008 19.6888C378.299 20.4005 378.453 21.3611 378.397 22.1055C378.341 22.8234 378.147 23.4108 377.796 23.9268C377.206 24.7895 376.238 25.3156 374.997 25.4462C374.709 25.4768 374.092 25.4768 373.792 25.4462C372.305 25.2952 371.093 24.6773 369.791 23.4047C368.926 22.5603 368.132 21.5549 366.892 19.7418C366.292 18.8628 366.196 18.7282 365.951 18.4121C365.533 17.8737 365.195 17.4964 364.727 17.0456C363.755 16.1055 362.612 15.2938 361.55 14.7859C361.388 14.7084 361.253 14.6411 361.253 14.635C361.253 14.6289 361.363 14.5718 361.498 14.5065Z" fill="white" fill-opacity="0.3"/>
</g>
<defs>
<clipPath id="clip0_1922_7646">
<rect width="390" height="14.625" fill="white"/>
</clipPath>
</defs>
</svg>
