<svg width="40" height="40" viewBox="0 0 40 40" fill="none" xmlns="http://www.w3.org/2000/svg">
<rect width="40" height="40" rx="10" fill="white"/>
<path d="M25.3125 10H14.6875C12.0987 10 10 12.0987 10 14.6875V25.3125C10 27.9013 12.0987 30 14.6875 30H25.3125C27.9013 30 30 27.9013 30 25.3125V14.6875C30 12.0987 27.9013 10 25.3125 10Z" fill="url(#paint0_radial_2999_1027)"/>
<path d="M25.3125 10H14.6875C12.0987 10 10 12.0987 10 14.6875V25.3125C10 27.9013 12.0987 30 14.6875 30H25.3125C27.9013 30 30 27.9013 30 25.3125V14.6875C30 12.0987 27.9013 10 25.3125 10Z" fill="url(#paint1_radial_2999_1027)"/>
<path d="M20.0007 12.1875C17.879 12.1875 17.6127 12.1968 16.7794 12.2347C15.9477 12.2728 15.3799 12.4045 14.8832 12.5977C14.3693 12.7972 13.9334 13.0641 13.4992 13.4985C13.0646 13.9328 12.7977 14.3687 12.5975 14.8823C12.4038 15.3792 12.272 15.9472 12.2345 16.7785C12.1973 17.6119 12.1875 17.8783 12.1875 20.0001C12.1875 22.1219 12.1969 22.3873 12.2347 23.2206C12.273 24.0523 12.4046 24.6201 12.5977 25.1168C12.7973 25.6307 13.0643 26.0666 13.4987 26.5008C13.9328 26.9354 14.3687 27.203 14.8822 27.4025C15.3793 27.5957 15.9471 27.7273 16.7787 27.7655C17.612 27.8034 17.8781 27.8127 19.9998 27.8127C22.1217 27.8127 22.3872 27.8034 23.2205 27.7655C24.0522 27.7273 24.6205 27.5957 25.1177 27.4025C25.6313 27.203 26.0666 26.9354 26.5006 26.5008C26.9352 26.0666 27.2021 25.6307 27.4023 25.117C27.5944 24.6201 27.7262 24.0522 27.7653 23.2208C27.8027 22.3875 27.8125 22.1219 27.8125 20.0001C27.8125 17.8783 27.8027 17.612 27.7653 16.7787C27.7262 15.947 27.5944 15.3793 27.4023 14.8826C27.2021 14.3687 26.9352 13.9328 26.5006 13.4985C26.0661 13.064 25.6315 12.797 25.1172 12.5977C24.6191 12.4045 24.0511 12.2727 23.2194 12.2347C22.386 12.1968 22.1207 12.1875 19.9983 12.1875H20.0007ZM19.2998 13.5954C19.5079 13.5951 19.74 13.5954 20.0007 13.5954C22.0867 13.5954 22.3339 13.6029 23.1577 13.6403C23.9194 13.6752 24.3328 13.8024 24.6082 13.9094C24.9728 14.0509 25.2327 14.2202 25.506 14.4938C25.7795 14.7672 25.9487 15.0276 26.0906 15.3922C26.1976 15.6672 26.325 16.0806 26.3597 16.8423C26.3971 17.6659 26.4052 17.9133 26.4052 19.9983C26.4052 22.0833 26.3971 22.3307 26.3597 23.1542C26.3248 23.9159 26.1976 24.3294 26.0906 24.6045C25.9491 24.9691 25.7795 25.2287 25.506 25.502C25.2326 25.7754 24.973 25.9446 24.6082 26.0863C24.3331 26.1937 23.9194 26.3206 23.1577 26.3555C22.3341 26.3929 22.0867 26.401 20.0007 26.401C17.9146 26.401 17.6673 26.3929 16.8438 26.3555C16.0821 26.3203 15.6687 26.193 15.393 26.0861C15.0285 25.9445 14.768 25.7752 14.4946 25.5018C14.2212 25.2284 14.052 24.9686 13.91 24.6038C13.803 24.3287 13.6756 23.9153 13.6409 23.1536C13.6035 22.33 13.596 22.0827 13.596 19.9963C13.596 17.9101 13.6035 17.664 13.6409 16.8404C13.6758 16.0787 13.803 15.6652 13.91 15.3898C14.0516 15.0252 14.2212 14.7648 14.4947 14.4914C14.7681 14.218 15.0285 14.0487 15.3931 13.9068C15.6685 13.7994 16.0821 13.6724 16.8438 13.6374C17.5645 13.6048 17.8438 13.5951 19.2998 13.5934V13.5954ZM24.171 14.8926C23.6534 14.8926 23.2335 15.3121 23.2335 15.8298C23.2335 16.3473 23.6534 16.7673 24.171 16.7673C24.6886 16.7673 25.1085 16.3473 25.1085 15.8298C25.1085 15.3122 24.6886 14.8923 24.171 14.8923V14.8926ZM20.0007 15.988C17.7851 15.988 15.9887 17.7844 15.9887 20.0001C15.9887 22.2158 17.7851 24.0113 20.0007 24.0113C22.2164 24.0113 24.0122 22.2158 24.0122 20.0001C24.0122 17.7845 22.2163 15.988 20.0005 15.988H20.0007ZM20.0007 17.3959C21.4389 17.3959 22.6049 18.5617 22.6049 20.0001C22.6049 21.4383 21.4389 22.6043 20.0007 22.6043C18.5624 22.6043 17.3966 21.4383 17.3966 20.0001C17.3966 18.5617 18.5624 17.3959 20.0007 17.3959Z" fill="white"/>
<defs>
<radialGradient id="paint0_radial_2999_1027" cx="0" cy="0" r="1" gradientUnits="userSpaceOnUse" gradientTransform="translate(15.3125 31.5404) rotate(-90) scale(19.8215 18.4355)">
<stop stop-color="#FFDD55"/>
<stop offset="0.1" stop-color="#FFDD55"/>
<stop offset="0.5" stop-color="#FF543E"/>
<stop offset="1" stop-color="#C837AB"/>
</radialGradient>
<radialGradient id="paint1_radial_2999_1027" cx="0" cy="0" r="1" gradientUnits="userSpaceOnUse" gradientTransform="translate(6.64992 11.4407) rotate(78.681) scale(8.86031 36.5225)">
<stop stop-color="#3771C8"/>
<stop offset="0.128" stop-color="#3771C8"/>
<stop offset="1" stop-color="#6600FF" stop-opacity="0"/>
</radialGradient>
</defs>
</svg>
