<svg width="40" height="40" viewBox="0 0 40 40" fill="none" xmlns="http://www.w3.org/2000/svg">
<rect width="40" height="40" rx="10" fill="white"/>
<g clip-path="url(#clip0_2999_1038)">
<path d="M30 20C30 22.6522 28.9464 25.1957 27.0711 27.0711C25.1957 28.9464 22.6522 30 20 30C17.3478 30 14.8043 28.9464 12.9289 27.0711C11.0536 25.1957 10 22.6522 10 20C10 17.3478 11.0536 14.8043 12.9289 12.9289C14.8043 11.0536 17.3478 10 20 10C22.6522 10 25.1957 11.0536 27.0711 12.9289C28.9464 14.8043 30 17.3478 30 20ZM20.3587 17.3825C19.3862 17.7875 17.4412 18.625 14.5262 19.895C14.0538 20.0825 13.805 20.2675 13.7825 20.4475C13.745 20.7512 14.1263 20.8713 14.645 21.035L14.8637 21.1038C15.3738 21.27 16.0612 21.4637 16.4175 21.4713C16.7425 21.4788 17.1037 21.3463 17.5025 21.0713C20.2262 19.2325 21.6325 18.3038 21.72 18.2837C21.7825 18.2688 21.87 18.2513 21.9275 18.3038C21.9862 18.355 21.98 18.4537 21.9738 18.48C21.9363 18.6412 20.44 20.0312 19.6663 20.7512C19.425 20.9762 19.2537 21.135 19.2188 21.1713C19.1417 21.25 19.0633 21.3275 18.9837 21.4038C18.5087 21.8612 18.1538 22.2038 19.0025 22.7638C19.4113 23.0338 19.7388 23.255 20.065 23.4775C20.42 23.72 20.775 23.9613 21.235 24.2638C21.3512 24.3387 21.4638 24.42 21.5725 24.4975C21.9863 24.7925 22.36 25.0575 22.8188 25.015C23.0863 24.99 23.3625 24.74 23.5025 23.99C23.8337 22.2188 24.485 18.3825 24.635 16.8012C24.6442 16.6698 24.6387 16.5377 24.6187 16.4075C24.607 16.3024 24.5561 16.2056 24.4763 16.1363C24.3625 16.0577 24.2269 16.0171 24.0887 16.02C23.7137 16.0262 23.135 16.2275 20.3587 17.3825Z" fill="#26A4E3"/>
</g>
<defs>
<clipPath id="clip0_2999_1038">
<rect width="20" height="20" fill="white" transform="translate(10 10)"/>
</clipPath>
</defs>
</svg>
