<svg width="40" height="40" viewBox="0 0 40 40" fill="none" xmlns="http://www.w3.org/2000/svg">
<rect width="40" height="40" rx="10" fill="white"/>
<g clip-path="url(#clip0_2999_1042)">
<path d="M24.5866 17.2013C25.9242 18.1216 27.5629 18.6632 29.3327 18.6632V15.3852C28.9978 15.3853 28.6637 15.3516 28.336 15.2848V17.865C26.5663 17.865 24.9279 17.3236 23.59 16.4033V23.0927C23.59 26.4391 20.7715 29.1516 17.295 29.1516C15.9979 29.1516 14.7922 28.7742 13.7906 28.1268C14.9338 29.2519 16.5279 29.9497 18.2915 29.9497C21.7682 29.9497 24.5868 27.2372 24.5868 23.8906V17.2013H24.5866ZM25.8162 13.8943C25.1326 13.1754 24.6837 12.2465 24.5866 11.2194V10.7979H23.6421C23.8799 12.1032 24.6909 13.2183 25.8162 13.8943ZM15.9895 25.559C15.6076 25.077 15.4011 24.4873 15.402 23.881C15.402 22.3505 16.6912 21.1096 18.2817 21.1096C18.578 21.1094 18.8726 21.1532 19.1552 21.2394V17.8882C18.825 17.8447 18.4919 17.8261 18.1589 17.833V20.4414C17.8762 20.3551 17.5814 20.3113 17.2849 20.3116C15.6945 20.3116 14.4055 21.5524 14.4055 23.0831C14.4055 24.1654 15.0498 25.1025 15.9895 25.559Z" fill="#FF004F"/>
<path d="M23.59 16.4032C24.928 17.3235 26.5663 17.865 28.336 17.865V15.2847C27.3482 15.0822 26.4737 14.5854 25.8162 13.8943C24.6908 13.2183 23.8799 12.1031 23.6421 10.7979H21.1612V23.8905C21.1555 25.4168 19.8686 26.6527 18.2815 26.6527C17.3464 26.6527 16.5155 26.2236 15.9894 25.5589C15.0498 25.1025 14.4054 24.1654 14.4054 23.0832C14.4054 21.5526 15.6945 20.3116 17.2849 20.3116C17.5896 20.3116 17.8833 20.3573 18.1588 20.4414V17.833C14.7434 17.901 11.9966 20.587 11.9966 23.8905C11.9966 25.5396 12.6806 27.0346 13.7907 28.127C14.7923 28.7742 15.9979 29.1518 17.2951 29.1518C20.7717 29.1518 23.5901 26.439 23.5901 23.0927V16.4033L23.59 16.4032Z" fill="black"/>
<path d="M28.3361 15.2848V14.5873C27.4453 14.5886 26.5721 14.3485 25.8163 13.8944C26.4853 14.5994 27.3662 15.0855 28.3361 15.285V15.2848ZM23.6421 10.7979C23.6195 10.6732 23.6021 10.5477 23.59 10.4216V10H20.1644V23.0928C20.1589 24.619 18.872 25.8548 17.2849 25.8548C16.835 25.8555 16.3912 25.7542 15.9894 25.5592C16.5155 26.2238 17.3464 26.6528 18.2816 26.6528C19.8685 26.6528 21.1556 25.417 21.1612 23.8907V10.798H23.6421V10.7979ZM18.159 17.8331V17.0904C17.8728 17.0527 17.5842 17.0339 17.2953 17.034C13.8184 17.034 11 19.7467 11 23.0928C11 25.1906 12.1077 27.0394 13.7909 28.127C12.6807 27.0347 11.9967 25.5397 11.9967 23.8906C11.9967 20.5872 14.7434 17.901 18.159 17.8331Z" fill="#00F2EA"/>
</g>
<defs>
<clipPath id="clip0_2999_1042">
<rect width="18.3333" height="20" fill="white" transform="translate(11 10)"/>
</clipPath>
</defs>
</svg>
