<svg width="40" height="40" viewBox="0 0 40 40" fill="none" xmlns="http://www.w3.org/2000/svg">
<rect width="40" height="40" rx="10" fill="white"/>
<g clip-path="url(#clip0_2999_1034)">
<path d="M28.5043 14.6249C25.5125 9.99985 19.4044 8.62484 14.6674 11.4999C10.0551 14.3749 8.55924 20.6249 11.551 25.25L11.8003 25.625L10.8031 29.375L14.5427 28.375L14.9167 28.625C16.5373 29.5 18.2824 30 20.0276 30C21.8975 30 23.7673 29.5 25.3879 28.5C30.0002 25.5 31.3714 19.3749 28.5043 14.6249ZM25.8865 24.25C25.3879 25 24.7646 25.5 23.892 25.625C23.3934 25.625 22.7701 25.875 20.2769 24.875C18.1578 23.875 16.4126 22.2499 15.166 20.3749C14.4181 19.4999 14.0441 18.3749 13.9195 17.2499C13.9195 16.2499 14.2934 15.3749 14.9167 14.7499C15.166 14.4999 15.4153 14.3749 15.6647 14.3749H16.2879C16.5373 14.3749 16.7866 14.3749 16.9112 14.8749C17.1605 15.4999 17.7838 16.9999 17.7838 17.1249C17.9085 17.2499 17.9085 17.4999 17.7838 17.6249C17.9085 17.8749 17.7838 18.1249 17.6592 18.2499C17.5345 18.3749 17.4098 18.6249 17.2852 18.7499C17.0359 18.8749 16.9112 19.1249 17.0359 19.3749C17.5345 20.1249 18.1578 20.8749 18.7811 21.4999C19.529 22.1249 20.2769 22.6249 21.1495 22.9999C21.3989 23.1249 21.6482 23.1249 21.7728 22.8749C21.8975 22.6249 22.5208 21.9999 22.7701 21.7499C23.0194 21.4999 23.144 21.4999 23.3934 21.6249L25.3879 22.6249C25.6372 22.7499 25.8865 22.8749 26.0111 22.9999C26.1358 23.3749 26.1358 23.875 25.8865 24.25Z" fill="#25D366"/>
</g>
<defs>
<clipPath id="clip0_2999_1034">
<rect width="20" height="20" fill="white" transform="translate(10 10)"/>
</clipPath>
</defs>
</svg>
