<svg width="40" height="40" viewBox="0 0 40 40" fill="none" xmlns="http://www.w3.org/2000/svg">
<rect width="40" height="40" rx="10" fill="white"/>
<path d="M29.6783 15.4863C29.4492 14.6251 28.7715 13.9456 27.9093 13.7128C26.3503 13.2949 20.0951 13.2949 20.0951 13.2949C20.0951 13.2949 13.8431 13.2949 12.2809 13.7128C11.4219 13.9424 10.7442 14.6219 10.5119 15.4863C10.0951 17.0493 10.0951 20.3125 10.0951 20.3125C10.0951 20.3125 10.0951 23.5756 10.5119 25.1386C10.741 25.9999 11.4187 26.6793 12.2809 26.9121C13.8431 27.33 20.0951 27.33 20.0951 27.33C20.0951 27.33 26.3503 27.33 27.9093 26.9121C28.7683 26.6825 29.446 26.0031 29.6783 25.1386C30.0951 23.5756 30.0951 20.3125 30.0951 20.3125C30.0951 20.3125 30.0951 17.0493 29.6783 15.4863Z" fill="#FF3000"/>
<path d="M18.097 23.3204L23.2927 20.3125L18.097 17.3045V23.3204Z" fill="white"/>
</svg>
